<?xml version="1.0" standalone="no"?>
<!DOCTYPE svg PUBLIC "-//W3C//DTD SVG 20010904//EN"
 "http://www.w3.org/TR/2001/REC-SVG-20010904/DTD/svg10.dtd">
<svg version="1.0" xmlns="http://www.w3.org/2000/svg"
 width="700.000000pt" height="700.000000pt" viewBox="0 0 700.000000 700.000000"
 preserveAspectRatio="xMidYMid meet">
<metadata>
Created by potrace 1.14, written by Peter Selinger 2001-2017
</metadata>
<g transform="translate(0.000000,700.000000) scale(0.100000,-0.100000)"
fill="#000000" stroke="none">
<path d="M0 3500 l0 -3500 3500 0 3500 0 0 3500 0 3500 -3500 0 -3500 0 0
-3500z m3544 1800 c32 -12 56 -58 45 -85 -16 -40 -11 -48 26 -42 28 5 46 -1
92 -29 85 -50 140 -99 148 -131 3 -15 2 -29 -3 -31 -5 -1 -7 -23 -5 -47 4 -34
1 -50 -16 -74 -13 -17 -29 -31 -36 -31 -8 0 -38 -25 -69 -55 -30 -30 -62 -55
-70 -55 -13 0 -15 -10 -9 -62 3 -35 10 -66 15 -69 5 -3 10 -19 12 -35 2 -16 5
-31 6 -34 0 -3 1 -35 1 -72 1 -54 3 -66 15 -61 8 3 23 -2 34 -12 10 -9 24 -14
29 -10 6 3 11 1 11 -4 0 -16 63 -40 71 -28 11 15 29 -2 22 -21 -3 -9 -2 -14 2
-9 5 4 18 1 29 -6 12 -8 29 -13 39 -11 9 1 15 -1 12 -6 -3 -5 11 -14 32 -21
20 -6 46 -20 57 -30 15 -14 23 -16 33 -7 11 9 13 8 11 -2 -2 -8 4 -14 12 -15
8 0 35 -20 60 -43 25 -24 54 -48 64 -54 16 -9 18 -8 12 8 -6 18 -5 18 9 0 8
-11 15 -16 15 -10 0 5 7 1 14 -9 9 -12 16 -14 21 -8 17 28 51 0 60 -51 4 -16
2 -18 -10 -8 -8 7 -13 15 -11 19 2 3 0 15 -5 26 -7 18 -8 18 -8 2 -1 -12 -5
-16 -13 -11 -7 5 -1 -7 13 -26 14 -18 33 -34 42 -36 9 -1 15 2 11 7 -3 5 2 9
10 9 9 0 16 -8 16 -19 0 -11 5 -23 11 -27 8 -5 10 1 7 20 -3 15 -3 24 0 22 2
-3 13 5 24 17 l19 22 -16 -27 c-16 -27 -16 -27 10 -34 18 -4 24 -11 21 -21 -8
-19 2 -35 16 -27 7 4 7 9 -1 13 -8 5 -6 13 4 27 13 16 14 16 9 2 -3 -10 -2
-18 2 -18 5 0 10 -12 10 -28 1 -15 -1 -21 -3 -14 -6 15 -23 6 -23 -13 0 -8 6
-12 14 -9 10 4 22 -8 36 -35 11 -23 16 -41 11 -41 -6 0 -8 -7 -5 -15 4 -8 10
-13 14 -10 5 3 12 -4 15 -16 4 -11 13 -18 20 -15 7 2 15 -4 18 -15 4 -16 2
-18 -7 -9 -10 7 -17 6 -27 -7 -13 -16 -12 -17 3 -5 15 12 17 11 16 -5 -3 -43
12 -73 37 -73 14 0 29 -8 35 -20 6 -11 15 -18 20 -15 6 3 7 -1 4 -9 -3 -9 -1
-29 4 -46 17 -48 -4 -44 -25 5 -10 25 -22 45 -26 45 -5 0 -5 6 -1 13 5 8 2 8
-9 -2 -20 -16 -23 -35 -4 -28 8 3 12 -6 11 -30 -1 -20 4 -49 12 -67 7 -17 13
-24 14 -17 0 21 57 -59 65 -92 4 -15 11 -25 15 -22 4 3 13 -9 19 -25 5 -17 7
-30 4 -30 -3 0 1 -7 8 -16 7 -9 14 -22 15 -30 4 -27 -12 -13 -34 29 l-21 42 4
-39 c5 -47 11 -55 53 -58 22 -1 31 -7 28 -15 -3 -7 3 -29 14 -48 25 -45 25
-61 0 -68 -14 -4 -20 0 -20 11 0 10 -9 28 -20 42 -18 23 -20 23 -19 5 0 -11 6
-31 14 -45 8 -14 14 -32 14 -40 0 -8 -4 -5 -10 8 -5 13 -13 21 -18 18 -5 -3
-12 1 -15 10 -3 8 -2 12 4 9 15 -10 12 7 -8 35 -25 36 -44 38 -31 3 6 -15 15
-33 21 -40 7 -9 7 -18 -3 -30 -10 -11 -10 -14 -1 -9 7 4 12 2 12 -5 0 -7 7 -4
16 7 15 19 15 18 11 -3 -4 -19 -1 -23 19 -23 25 0 33 -23 12 -36 -7 -5 -8 -3
-3 7 8 12 6 12 -8 0 -14 -11 -17 -11 -17 0 0 12 -2 12 -9 0 -7 -11 -10 -9 -16
8 -4 13 -9 20 -11 18 -3 -2 3 -20 12 -40 16 -33 16 -36 -1 -58 l-17 -24 6 30
c5 24 4 27 -4 12 -11 -17 -10 -77 0 -87 14 -14 30 -52 30 -72 0 -13 7 -45 15
-72 20 -67 20 -72 -17 -90 -17 -9 -29 -14 -26 -10 4 3 0 21 -8 40 -8 19 -12
46 -8 62 4 21 3 24 -5 12 -10 -13 -11 -13 -10 0 0 8 4 24 8 35 7 17 8 17 15
-8 3 -15 3 -39 0 -53 -5 -19 -4 -25 5 -20 7 5 11 -3 11 -26 0 -30 1 -31 16
-16 13 12 14 20 5 37 -9 15 -9 21 -1 21 6 0 4 7 -4 16 -10 10 -14 25 -11 42 4
22 4 23 -4 7 -7 -17 -10 -14 -15 20 -4 22 -11 54 -16 70 -8 28 -8 27 -3 -7 3
-20 0 -52 -6 -71 -9 -25 -9 -48 0 -87 10 -49 10 -55 -8 -69 -26 -22 -37 -51
-18 -51 8 0 15 -6 15 -12 0 -9 4 -8 11 2 8 11 9 4 3 -25 -4 -22 -8 -51 -8 -65
-1 -14 -3 -27 -6 -30 -3 -3 -11 -18 -18 -34 -19 -44 -24 -25 -6 22 10 24 13
48 9 59 -5 10 -7 27 -7 38 l2 20 -9 -20 c-7 -15 -10 -7 -10 33 -1 28 -5 52
-10 52 -8 0 -8 -20 4 -99 5 -32 9 -40 16 -30 5 8 9 9 9 3 0 -6 -3 -13 -6 -17
-9 -9 -35 4 -28 14 3 5 0 9 -5 9 -6 0 -11 -10 -11 -22 -1 -23 -1 -23 -16 2
-14 24 -15 24 -9 -20 3 -32 2 -39 -4 -25 -8 15 -10 8 -12 -35 l-2 -55 -7 55
-7 55 -1 -59 c-2 -51 -4 -57 -17 -46 -17 14 -21 35 -4 24 8 -4 8 0 0 15 -14
25 -23 28 -14 4 4 -11 3 -14 -5 -9 -8 5 -10 1 -5 -10 5 -13 3 -15 -8 -9 -8 5
-11 5 -6 -1 5 -5 12 -8 15 -7 4 1 15 -6 25 -14 9 -9 17 -12 17 -7 0 5 5 2 10
-6 5 -8 10 -19 10 -25 0 -5 -4 -4 -9 4 -7 10 -9 7 -8 -11 2 -18 7 -24 19 -20
10 2 14 10 11 20 -4 10 -2 13 5 8 8 -5 10 -2 6 8 -6 15 21 34 32 24 6 -7 -29
-68 -38 -68 -5 0 -8 -9 -8 -21 0 -14 5 -19 14 -16 8 3 17 0 19 -7 7 -18 -8
-40 -22 -32 -6 4 -11 5 -11 2 0 -2 -3 -12 -7 -22 -5 -13 -3 -15 8 -9 8 4 11 5
7 1 -3 -4 -9 -7 -13 -6 -7 2 -55 -48 -55 -57 0 -3 9 2 20 12 20 18 29 8 11
-11 -5 -5 -21 -31 -35 -59 -21 -40 -22 -45 -6 -26 12 13 25 31 30 40 7 13 11
13 21 4 10 -10 10 -18 0 -40 -11 -26 -9 -25 18 7 32 37 37 50 22 50 -9 0 -7
37 2 46 2 2 10 -7 17 -21 11 -21 11 -30 -6 -62 -21 -41 -56 -98 -79 -128 -8
-10 -15 -23 -15 -27 0 -4 -7 -8 -15 -8 -12 0 -13 4 -5 19 14 26 13 31 -5 25
-8 -4 -15 -2 -15 3 0 5 -13 10 -30 11 -28 2 -34 -4 -32 -33 1 -5 -10 -18 -23
-28 -19 -13 -25 -15 -25 -4 0 7 6 19 13 26 6 6 12 15 12 19 1 4 9 22 19 41 10
18 12 30 6 26 -8 -5 -11 -3 -8 6 3 8 10 14 16 14 5 0 14 4 19 9 5 5 3 6 -5 2
-7 -4 -12 -2 -12 6 0 7 -7 2 -16 -10 -8 -12 -13 -26 -10 -31 3 -4 -5 -8 -17
-7 -12 1 -23 -3 -24 -8 -1 -5 -7 -13 -15 -18 -10 -8 -10 -9 2 -5 8 2 14 10 13
16 -2 6 2 11 7 11 6 0 10 -5 10 -11 0 -5 5 -7 12 -3 7 4 8 3 4 -5 -4 -6 -12
-8 -18 -5 -7 5 -9 1 -5 -9 5 -14 2 -15 -18 -7 -18 7 -25 6 -25 -2 0 -6 -3 -9
-6 -5 -4 3 10 37 31 74 l37 68 -33 -38 c-18 -20 -42 -56 -52 -80 -14 -35 -17
-37 -13 -12 3 17 3 24 0 17 -3 -6 -9 -10 -14 -7 -4 3 -6 -5 -2 -17 3 -14 1
-19 -6 -14 -8 5 -10 -2 -5 -25 6 -33 -14 -59 -29 -36 -4 7 -10 3 -16 -12 -8
-24 -9 -24 -30 11 -12 20 -23 53 -23 74 -1 22 -3 31 -6 22 -2 -10 -10 -15 -19
-11 -10 4 -12 0 -8 -11 3 -9 10 -13 15 -10 5 3 8 -15 7 -40 -2 -35 -5 -43 -15
-34 -9 7 -13 7 -13 -1 0 -7 -5 -9 -12 -5 -6 4 -8 3 -4 -4 3 -6 -1 -27 -11 -47
l-17 -36 -14 27 c-14 26 -15 27 -28 9 -8 -10 -14 -23 -14 -29 0 -5 6 -2 13 9
10 13 16 15 21 6 5 -7 5 -15 2 -18 -3 -4 -6 0 -6 8 0 11 -2 11 -10 -1 -16 -25
-12 -43 8 -35 11 4 14 3 7 -4 -13 -12 -54 -19 -55 -8 -1 23 1 28 10 22 12 -8
12 -8 1 33 -6 18 -6 30 -1 27 5 -3 11 4 15 15 3 11 10 20 14 20 6 0 10 19 11
63 1 11 6 15 13 10 7 -4 5 4 -4 17 -20 32 -14 57 9 38 12 -10 12 -7 -2 14 -22
33 -21 33 -24 8 -1 -11 -3 -29 -4 -40 -2 -17 -4 -18 -16 -6 -11 10 -11 19 -3
34 6 11 11 24 11 29 -1 4 -19 -27 -41 -69 -21 -43 -43 -78 -47 -78 -11 0 -32
22 -32 33 0 4 4 6 9 3 10 -7 57 42 48 51 -4 3 -3 11 2 17 14 18 22 64 12 70
-5 3 -9 0 -8 -7 1 -33 -4 -60 -10 -54 -7 8 -33 -11 -33 -25 0 -5 4 -7 9 -3 5
3 12 1 15 -4 4 -5 -1 -8 -10 -7 -8 1 -20 9 -25 17 -5 8 -9 10 -9 5 0 -5 -8 -2
-17 5 -16 13 -17 12 -5 -3 12 -15 10 -21 -12 -43 -27 -27 -46 -32 -46 -12 0 6
-9 -3 -20 -20 -11 -18 -22 -33 -24 -33 -10 0 -46 44 -46 54 1 6 10 0 20 -13
11 -13 20 -18 20 -12 0 6 0 14 0 19 0 4 -3 7 -7 7 -5 0 -13 4 -20 8 -17 10
-26 -9 -14 -31 5 -10 6 -24 1 -32 -13 -21 -1 -32 17 -15 20 21 30 11 12 -12
-10 -12 -10 -15 -1 -9 9 6 11 1 8 -20 -3 -17 -2 -24 4 -18 5 5 11 24 13 42 2
18 8 31 13 30 5 -2 7 -7 5 -13 -2 -5 -3 -18 -3 -27 0 -9 -6 -22 -14 -28 -8 -8
-12 -21 -8 -35 3 -13 0 -26 -6 -30 -9 -5 -10 -1 -5 14 6 20 5 21 -13 10 -11
-7 -18 -19 -15 -26 3 -7 0 -13 -6 -13 -10 0 -9 80 3 98 3 5 -3 17 -14 27 -14
13 -17 22 -10 34 5 10 5 23 -1 32 -8 12 -10 12 -19 -1 -5 -8 -10 -10 -10 -5 0
6 -5 3 -10 -5 -8 -12 -10 -10 -10 10 0 20 -2 22 -10 10 -6 -10 -10 -11 -10 -2
0 7 -9 3 -22 -10 -20 -20 -22 -20 -34 -4 -11 16 -13 16 -22 1 -11 -21 -20 -21
-38 2 -10 12 -12 13 -9 3 6 -18 -35 -23 -47 -6 -8 12 -60 17 -52 4 3 -4 10 -6
15 -3 5 4 9 2 9 -4 0 -15 -18 -23 -25 -11 -3 5 -19 8 -36 5 -17 -3 -29 -1 -29
5 0 6 5 8 12 4 7 -4 8 -3 4 5 -4 6 -11 9 -16 6 -5 -3 -13 3 -19 12 -6 10 -11
13 -11 6 0 -6 5 -15 10 -18 14 -9 12 -25 -3 -25 -7 0 -23 17 -35 37 -12 21
-22 32 -22 24 0 -11 -3 -11 -17 0 -17 13 -17 13 0 -13 19 -31 22 -42 7 -33 -5
3 -7 0 -5 -7 4 -9 -2 -14 -14 -14 -11 0 -18 2 -16 4 2 3 0 13 -5 23 -7 12 -7
20 0 24 6 4 10 3 9 -2 -1 -4 -1 -15 0 -23 1 -11 4 -11 13 -2 9 10 9 16 -3 28
-14 13 -17 13 -29 -1 -11 -13 -15 -13 -31 6 -24 28 -25 15 -1 -19 32 -47 35
-58 5 -26 -32 36 -53 35 -54 -4 -1 -25 -2 -24 -9 6 -9 38 -16 47 -37 47 -9 0
-18 7 -20 15 -4 13 -3 13 6 0 6 -8 11 -10 11 -4 0 16 -27 37 -33 27 -3 -5 -4
-22 -1 -38 3 -17 5 -39 5 -50 0 -17 2 -16 17 6 20 30 42 27 42 -5 0 -19 -5
-22 -38 -22 -39 0 -40 2 -42 59 -1 15 -4 16 -15 7 -10 -8 -16 -7 -24 7 -14 24
-14 8 0 -20 8 -19 8 -20 -3 -7 -14 17 -27 19 -45 7 -9 -6 -11 -3 -6 9 5 13 3
15 -7 9 -8 -5 -11 -4 -7 3 4 5 4 17 1 26 -5 12 -9 13 -25 3 -10 -6 -19 -15
-19 -20 0 -4 4 -6 8 -3 5 3 19 -12 31 -34 18 -32 19 -38 5 -36 -20 3 -34 25
-26 44 4 12 -1 14 -21 10 -38 -7 -92 69 -92 130 0 38 -1 41 -14 25 -12 -16
-13 -16 -8 -1 3 10 2 20 -3 23 -5 3 -11 -3 -13 -12 -4 -15 -5 -15 -6 -2 0 9 8
24 19 34 11 10 20 25 20 34 0 10 -5 7 -13 -8 -17 -35 -35 -37 -43 -4 -12 49
-24 66 -38 54 -11 -9 -12 -5 -9 16 3 21 2 24 -5 14 -6 -8 -18 -16 -26 -17 -13
-2 -15 4 -11 28 5 27 4 30 -10 18 -13 -11 -15 -9 -15 12 0 15 -6 25 -15 25 -8
0 -15 -4 -15 -9 0 -4 5 -8 10 -8 6 0 8 -11 3 -27 -3 -16 -6 -36 -5 -45 0 -10
-4 -18 -9 -18 -7 0 -8 12 -4 31 5 22 4 29 -4 25 -7 -5 -11 6 -12 31 -1 37 -16
100 -18 76 -2 -21 -21 -15 -21 6 0 10 -6 24 -14 30 -19 16 -27 -7 -19 -53 3
-21 1 -36 -4 -36 -5 0 -10 6 -10 13 0 6 -3 39 -6 72 -4 40 -4 51 2 35 7 -20 9
-21 9 -5 0 11 -4 31 -8 45 -7 23 -8 23 -9 3 -1 -12 -6 -25 -12 -29 -9 -5 -10
3 -5 30 5 24 3 36 -4 36 -6 0 -8 4 -5 10 3 5 1 18 -5 27 -10 16 -11 16 -6 -2
6 -18 5 -19 -7 -3 -11 13 -16 15 -25 6 -16 -16 -15 1 3 35 10 19 11 27 3 25
-7 -3 -18 -27 -25 -55 -14 -54 -43 -117 -43 -93 0 13 -1 13 -10 0 -7 -12 -10
-11 -15 5 -4 11 -15 41 -26 67 -10 26 -19 55 -18 65 1 19 0 20 21 -37 7 -18
11 -21 17 -11 6 9 12 2 21 -25 12 -35 14 -36 26 -19 20 26 17 44 -3 20 -16
-20 -15 -16 2 28 4 9 -3 13 -23 11 -25 -2 -30 3 -45 47 -10 27 -22 49 -26 49
-15 0 -22 49 -10 71 6 11 8 23 5 26 -3 4 -11 -8 -17 -25 -6 -18 -15 -32 -19
-32 -5 0 -3 14 3 30 6 17 15 30 19 30 4 0 8 8 9 18 0 14 2 14 9 -3 4 -11 5
-33 2 -49 -4 -21 -2 -27 7 -22 6 4 10 23 9 41 -1 19 1 37 4 41 8 8 -14 34 -24
28 -14 -9 -17 14 -3 26 20 17 43 6 56 -27 8 -21 7 -28 -6 -35 -8 -5 -15 -14
-15 -21 0 -7 4 -6 10 3 16 25 12 -7 -6 -41 -10 -20 -13 -41 -9 -61 l7 -31 18
39 c20 42 26 42 10 0 -13 -34 -3 -61 16 -45 11 9 14 8 14 -4 0 -9 -4 -19 -10
-22 -5 -3 -10 -12 -10 -18 0 -7 9 -1 20 13 10 14 17 26 15 28 -2 2 3 14 10 28
14 28 8 87 -7 61 -14 -26 -39 -9 -32 22 4 18 -1 12 -16 -17 -13 -24 -25 -40
-28 -38 -5 5 17 66 39 108 12 23 11 31 0 23 -6 -3 -13 15 -16 40 -4 25 -10 45
-14 45 -4 0 -6 14 -3 30 3 21 -2 38 -14 52 -12 13 -15 22 -8 25 15 5 1 79 -14
75 -15 -3 -16 15 -1 20 6 2 10 34 10 78 -1 153 0 194 5 202 3 4 1 8 -4 8 -5 0
-9 7 -9 15 0 11 4 12 13 4 18 -15 29 32 15 60 -9 16 -8 28 4 50 8 17 15 38 15
47 0 9 6 22 14 28 7 6 16 28 19 49 5 29 2 37 -10 37 -11 0 -13 3 -5 13 10 12
12 17 12 40 0 6 4 19 9 26 8 12 13 11 28 -8 l19 -23 39 78 c22 44 44 82 48 85
5 4 10 18 10 33 1 14 5 26 9 26 3 0 1 14 -5 32 -9 24 -9 32 1 35 20 8 13 26
-8 20 -13 -3 -20 0 -20 10 0 9 5 11 13 7 7 -5 7 -1 -2 10 -13 15 -13 19 -1 26
8 5 17 5 20 1 7 -13 43 -17 59 -7 10 7 12 3 6 -15 -5 -19 -4 -21 5 -9 9 13 12
13 24 -3 13 -17 15 -16 35 9 11 14 18 30 15 35 -3 5 7 9 21 9 18 0 29 6 32 20
3 11 9 17 14 14 5 -3 12 2 15 10 3 9 12 16 20 16 8 0 14 4 14 9 0 5 15 14 33
22 17 7 34 15 37 18 8 9 43 30 70 42 14 6 33 15 42 20 10 5 25 9 33 9 8 0 15
4 15 10 0 5 3 9 8 9 22 -4 30 4 34 30 3 20 1 28 -6 23 -6 -4 -20 -7 -31 -7
-13 0 -19 -6 -17 -16 1 -9 -4 -16 -11 -16 -9 0 -13 10 -11 29 2 16 0 27 -5 23
-5 -3 -4 6 2 20 l12 25 5 -23 c3 -13 14 -23 26 -25 17 -2 23 4 29 30 4 18 7
37 6 42 -2 9 18 26 32 26 13 0 8 -16 -12 -39 -11 -13 -17 -30 -14 -39 4 -10 8
-12 11 -4 9 27 24 10 20 -23 -4 -33 -3 -34 29 -33 18 1 31 4 29 7 -2 3 14 7
37 8 22 2 48 10 58 19 9 8 19 11 20 6 2 -5 25 -12 51 -15 36 -5 47 -3 52 9 4
10 2 13 -7 8 -9 -6 -9 -4 1 8 7 9 9 18 4 20 -5 1 -12 17 -15 33 l-6 30 14 -30
c13 -28 14 -23 15 74 0 94 2 103 18 99 12 -4 18 1 18 13 0 14 -4 16 -21 7 -11
-5 -7 1 9 14 27 22 28 28 21 64 -4 21 -7 56 -7 77 l2 37 -54 0 c-60 0 -106 29
-106 68 0 15 -6 22 -19 22 -11 0 -27 7 -35 16 -20 19 -21 82 -2 109 7 11 16
33 20 48 4 15 12 26 19 25 7 -2 26 7 44 20 37 26 115 52 159 52 30 0 30 1 30
53 0 86 11 99 68 77z m-596 -340 c7 0 10 -4 7 -10 -3 -5 -18 -10 -32 -10 -20
0 -24 -4 -19 -17 4 -13 1 -12 -13 4 -11 13 -17 31 -14 42 4 17 7 18 31 5 15
-8 33 -14 40 -14z m-189 -29 c7 -5 11 -13 7 -19 -3 -6 0 -13 6 -15 8 -3 6 -6
-5 -6 -10 -1 -16 -5 -13 -10 3 -5 0 -14 -8 -20 -18 -15 -32 15 -16 34 8 9 6
14 -6 19 -21 8 -33 -2 -16 -13 10 -6 10 -10 -1 -19 -10 -9 -20 -9 -40 1 -38
17 -35 45 6 50 58 7 72 7 86 -2z m66 -1 c3 -5 2 -10 -4 -10 -5 0 -13 5 -16 10
-3 6 -2 10 4 10 5 0 13 -4 16 -10z m120 -56 c11 -15 28 -40 39 -58 16 -27 14
-26 -17 9 -20 22 -36 35 -37 28 0 -6 4 -15 10 -18 5 -3 15 -16 21 -28 11 -21
10 -20 -15 3 -20 18 -25 31 -21 47 3 13 1 23 -5 23 -5 0 -10 5 -10 10 0 18 15
11 35 -16z m-155 -56 c0 -5 4 -7 9 -3 6 3 15 -3 20 -14 14 -25 14 -31 0 -31
-5 0 -8 4 -5 8 3 5 -8 16 -25 26 -30 18 -41 40 -14 30 8 -4 15 -10 15 -16z
m85 -49 c-3 -5 6 -11 20 -15 20 -5 24 -9 15 -18 -8 -8 -13 -7 -19 3 -6 9 -11
10 -15 2 -4 -6 -13 -11 -19 -11 -9 0 -8 3 1 8 7 5 10 16 6 25 -3 9 -11 14 -17
10 -6 -3 -7 -1 -3 5 4 6 13 9 21 6 8 -4 12 -10 10 -15z m-200 -39 c4 -6 11 -7
17 -4 5 4 23 -3 39 -15 19 -14 29 -17 29 -9 0 10 3 9 9 -1 5 -8 16 -11 26 -7
21 8 51 -9 66 -37 12 -22 12 -22 -9 -4 -20 18 -76 32 -67 17 6 -9 -25 -23 -33
-15 -3 3 0 5 6 5 7 0 12 7 12 15 0 12 -4 13 -18 6 -19 -10 -56 4 -47 19 3 5 0
12 -6 16 -8 4 -9 3 -5 -4 12 -20 -10 -13 -29 8 -10 11 -13 20 -7 20 6 0 14 -5
17 -10z m562 -12 c-3 -8 -6 -5 -6 6 -1 11 2 17 5 13 3 -3 4 -12 1 -19z m-304
-2 c4 -10 1 -13 -8 -9 -8 3 -12 9 -9 14 7 12 11 11 17 -5z m-433 -16 c0 -5 -6
-10 -12 -10 -10 0 -10 -2 0 -9 11 -7 10 -10 -3 -15 -26 -9 -42 -7 -25 4 12 8
11 10 -7 10 -13 0 -23 4 -23 9 0 9 21 16 58 20 6 0 12 -3 12 -9z m647 4 c-3
-3 -12 -4 -19 -1 -8 3 -5 6 6 6 11 1 17 -2 13 -5z m-727 -38 c0 -17 -2 -18
-10 -6 -8 13 -10 12 -10 -2 0 -11 -7 -18 -17 -18 -16 0 -16 2 -3 11 12 8 12
10 -5 8 -63 -5 -71 8 -13 20 51 11 58 9 58 -13z m465 14 c3 -5 2 -10 -4 -10
-5 0 -13 5 -16 10 -3 6 -2 10 4 10 5 0 13 -4 16 -10z m322 -12 c-3 -8 -6 -5
-6 6 -1 11 2 17 5 13 3 -3 4 -12 1 -19z m-373 -16 c2 -4 -4 -8 -14 -8 -10 0
-16 4 -14 8 3 4 9 8 14 8 5 0 11 -4 14 -8z m-317 -8 c-3 -3 -12 -4 -19 -1 -8
3 -5 6 6 6 11 1 17 -2 13 -5z m158 -73 c14 -66 14 -73 -1 -89 -13 -12 -14 -17
-4 -20 21 -7 40 27 30 52 -4 13 -5 28 0 35 10 17 22 -2 14 -23 -3 -9 -1 -23 6
-31 9 -11 9 -15 1 -15 -7 0 -9 -5 -5 -12 4 -6 3 -8 -3 -5 -13 8 -24 -16 -15
-30 11 -16 43 -24 41 -10 -4 29 1 41 12 30 8 -8 6 -19 -5 -39 -8 -16 -15 -23
-16 -15 0 8 -2 12 -5 9 -3 -3 -3 -13 1 -22 6 -16 8 -16 27 1 11 10 17 12 13 6
-5 -9 0 -13 13 -13 12 0 21 7 21 15 0 9 6 18 14 21 8 3 12 12 10 19 -3 7 -1
16 5 20 7 3 11 -2 11 -14 0 -11 -6 -24 -13 -28 -24 -14 -26 -49 -5 -62 11 -7
17 -15 13 -19 -3 -3 -10 0 -15 8 -6 10 -13 3 -25 -26 -17 -37 -18 -38 -24 -14
-8 30 -57 37 -66 9 -4 -10 -11 -18 -17 -16 -6 1 -12 -3 -15 -10 -2 -7 3 -10
14 -8 10 2 18 4 18 5 0 1 8 3 18 5 19 4 19 3 11 -19 -5 -14 -9 -14 -22 -4 -12
10 -14 10 -8 1 4 -7 2 -13 -3 -13 -6 0 -11 6 -11 13 0 8 -4 7 -10 -3 -7 -11
-10 -12 -10 -2 0 17 -21 -2 -38 -35 -10 -18 -9 -24 5 -32 14 -9 10 -10 -19 -8
-40 2 -49 13 -20 24 23 9 32 23 32 53 0 17 3 21 9 12 6 -10 12 -5 21 18 7 17
20 35 29 40 11 6 12 9 3 10 -7 0 -10 4 -7 10 4 6 -1 7 -11 3 -13 -5 -15 -2 -9
18 5 17 4 21 -3 14 -6 -5 -14 -23 -17 -40 -5 -22 -4 -26 4 -15 15 22 24 5 9
-19 -8 -14 -19 -19 -31 -15 -15 5 -17 2 -11 -21 5 -21 3 -26 -9 -23 -9 2 -16
-1 -15 -7 0 -5 4 -9 9 -7 5 1 9 -2 9 -8 0 -5 -12 -10 -27 -10 -16 0 -23 4 -18
8 6 4 10 37 11 75 1 55 -1 65 -12 56 -20 -17 -17 -5 6 21 11 13 20 30 20 38 0
10 -10 3 -24 -16 -20 -28 -25 -30 -31 -15 -6 16 -8 14 -21 -9 -8 -16 -18 -28
-23 -28 -5 0 -14 -13 -21 -30 -13 -32 -30 -40 -30 -14 0 8 5 12 10 9 6 -3 10
1 10 9 0 16 78 106 92 106 5 0 6 -6 3 -12 -4 -7 0 -6 7 4 13 15 17 103 5 115
-7 6 3 33 12 33 3 0 7 -23 9 -51 3 -63 21 -103 22 -49 1 53 20 16 20 -40 1
-43 1 -44 13 -20 7 14 13 43 13 65 -1 22 4 43 9 48 7 5 7 10 0 15 -5 4 -11 31
-11 60 -1 29 0 51 2 49 3 -2 11 -37 19 -76z m72 54 c0 -18 -19 -15 -25 3 -2 7
3 12 11 12 7 0 14 -7 14 -15z m180 -6 c1 -9 -5 -20 -13 -23 -8 -3 -12 -2 -9 3
3 5 1 12 -5 16 -13 8 -5 22 13 22 7 0 14 -8 14 -18z m-527 -9 c-8 -5 -19 -10
-25 -10 -5 0 -3 5 5 10 8 5 20 10 25 10 6 0 3 -5 -5 -10z m474 -26 c-2 -35
-14 -62 -14 -31 0 10 -6 17 -14 17 -20 0 -29 17 -15 26 8 4 9 3 5 -4 -4 -7 -2
-12 3 -12 6 0 11 6 11 14 0 8 6 17 13 19 6 3 12 6 12 6 0 1 0 -15 -1 -35z
m411 16 c-3 -5 -13 -10 -21 -10 -8 0 -14 5 -14 10 0 6 9 10 21 10 11 0 17 -4
14 -10z m-186 -44 c7 -8 8 -17 3 -20 -9 -5 -31 14 -47 42 -6 11 -3 12 12 4 11
-6 25 -18 32 -26z m-343 -11 c-4 -16 -11 -23 -18 -19 -8 5 -9 1 -4 -12 4 -10
4 -15 -1 -11 -4 5 -8 22 -9 38 -2 27 -1 28 13 12 8 -10 12 -12 8 -5 -3 6 -3
17 0 23 11 17 18 2 11 -26z m148 20 c-4 -8 -8 -15 -10 -15 -2 0 -4 7 -4 15 0
8 4 15 10 15 5 0 7 -7 4 -15z m36 3 c0 -10 2 -10 8 0 5 7 15 10 23 7 16 -6 23
-45 8 -45 -5 0 -9 8 -10 18 0 15 -1 15 -8 -2 -5 -14 -10 -16 -15 -8 -4 7 -11
10 -16 7 -5 -3 -8 4 -7 15 1 21 17 28 17 8z m317 -10 c-3 -8 -6 -5 -6 6 -1 11
2 17 5 13 3 -3 4 -12 1 -19z m35 0 c-7 -7 -12 -8 -12 -2 0 6 3 14 7 17 3 4 9
5 12 2 2 -3 -1 -11 -7 -17z m-124 -86 l26 -22 -25 4 c-13 3 -30 5 -36 5 -7 1
-13 10 -13 21 0 14 -5 18 -17 14 -15 -5 -15 -4 -3 4 8 6 18 8 22 6 4 -3 9 3 9
13 1 15 2 15 6 -2 3 -11 17 -30 31 -43z m-179 -12 c0 -20 -3 -17 -14 15 -18
50 -18 53 0 29 8 -10 14 -30 14 -44z m311 21 c-11 -21 -50 -30 -50 -11 0 5 6
7 13 4 8 -3 19 7 27 23 7 15 15 23 17 16 2 -7 -1 -21 -7 -32z m770 19 c0 -5
-4 -10 -10 -10 -5 0 -10 5 -10 10 0 6 5 10 10 10 6 0 10 -4 10 -10z m-733 -42
c1 -19 -1 -25 -4 -13 l-6 20 -8 -20 c-6 -17 -8 -15 -8 11 -1 31 6 47 18 39 4
-2 7 -18 8 -37z m-453 16 c3 -8 2 -13 -3 -9 -5 3 -11 0 -13 -7 -3 -7 -7 -5
-11 6 -4 10 -3 15 3 11 6 -3 10 -1 10 4 0 16 7 13 14 -5z m961 -10 c9 -15 12
-23 6 -20 -11 7 -35 46 -28 46 3 0 12 -12 22 -26z m-917 -15 c7 -12 11 -23 8
-26 -3 -3 -8 1 -12 10 -3 9 -11 15 -17 13 -7 -1 -9 -1 -4 1 4 3 5 9 1 14 -3 5
-1 9 3 9 5 0 14 -9 21 -21z m287 11 c3 -5 1 -10 -4 -10 -6 0 -11 5 -11 10 0 6
2 10 4 10 3 0 8 -4 11 -10z m782 -6 c-3 -3 -12 -4 -19 -1 -8 3 -5 6 6 6 11 1
17 -2 13 -5z m-1197 -12 c0 -13 -12 -22 -22 -16 -10 6 -1 24 13 24 5 0 9 -4 9
-8z m463 -9 c-6 -15 -29 -17 -37 -4 -8 12 3 20 24 18 10 -1 16 -7 13 -14z
m885 -62 c1 -39 -2 -71 -7 -71 -4 0 -9 27 -10 61 -1 34 -2 64 -3 68 -1 14 3
22 10 17 5 -3 9 -37 10 -75z m-938 65 c0 -8 -51 -13 -56 -5 -3 5 9 9 25 9 17
0 31 -2 31 -4z m800 -6 c0 -5 -2 -10 -4 -10 -3 0 -8 5 -11 10 -3 6 -1 10 4 10
6 0 11 -4 11 -10z m67 -5 c0 -8 -4 -15 -9 -15 -4 0 -8 7 -8 15 0 8 4 15 8 15
5 0 9 -7 9 -15z m-727 -22 c0 -10 -4 -14 -8 -8 -4 6 -11 13 -16 18 -5 4 -2 7
7 7 10 0 17 -8 17 -17z m-387 -11 c-10 -11 -22 -17 -27 -14 -5 3 -1 11 9 19
27 19 38 16 18 -5z m283 5 c4 -3 -3 -4 -16 -2 -15 3 -20 0 -17 -8 6 -16 -30
-20 -39 -5 -4 6 -10 5 -15 -3 -6 -10 -9 -10 -9 -2 0 16 17 26 25 13 3 -5 11
-10 17 -10 7 0 6 5 -1 14 -10 12 -7 14 18 12 17 -1 33 -5 37 -9z m954 -28 c0
-40 -17 -36 -22 5 -3 24 0 32 9 29 7 -3 13 -18 13 -34z m-1060 16 c0 -8 -2
-15 -4 -15 -2 0 -6 7 -10 15 -3 8 -1 15 4 15 6 0 10 -7 10 -15z m-239 -24 c6
10 9 10 9 2 0 -7 7 -10 18 -7 14 5 14 4 2 -4 -8 -6 -18 -8 -24 -5 -5 4 -7 -2
-3 -13 6 -17 6 -17 -6 -2 -10 12 -18 14 -32 6 -18 -8 -18 -8 -4 4 9 7 14 20
12 28 -3 9 1 7 8 -4 9 -15 13 -16 20 -5z m1211 -24 c3 -29 1 -33 -22 -34 -14
0 -18 1 -9 4 11 3 14 12 11 33 -2 17 0 30 6 30 5 0 12 -15 14 -33z m-1596 -9
c-9 -12 -16 -19 -16 -15 0 11 24 47 28 42 2 -2 -3 -14 -12 -27z m685 23 c-8
-5 -20 -7 -28 -4 -21 8 -15 13 15 13 20 0 23 -3 13 -9z m1063 -73 c22 -45 48
-91 58 -103 27 -28 41 -55 29 -55 -5 0 -18 14 -28 30 -15 27 -19 28 -25 13 -7
-14 -7 -13 -4 5 2 12 -2 28 -9 36 -8 7 -11 17 -7 21 4 4 -3 4 -15 1 -21 -7
-23 -4 -23 26 0 19 -4 38 -9 44 -12 13 -23 64 -14 64 5 0 26 -37 47 -82z
m-1214 42 c0 -5 -7 -7 -15 -4 -8 4 -15 8 -15 10 0 2 7 4 15 4 8 0 15 -4 15
-10z m1147 -22 c-3 -7 -5 -2 -5 12 0 14 2 19 5 13 2 -7 2 -19 0 -25z m-1327
16 c0 -8 -19 -13 -24 -6 -3 5 1 9 9 9 8 0 15 -2 15 -3z m45 -12 c-11 -11 -32
-10 -32 3 0 7 8 10 19 7 10 -2 16 -7 13 -10z m1549 -7 c6 -11 16 -24 21 -31
45 -52 55 -65 55 -74 0 -6 5 -10 10 -10 6 0 10 -6 10 -12 -1 -14 -51 41 -101
111 -18 24 -26 42 -19 39 8 -2 18 -13 24 -23z m-1702 -10 c6 -13 14 -22 19
-20 4 3 10 1 13 -4 4 -5 -7 -9 -24 -9 -26 1 -29 4 -24 24 5 18 1 23 -18 27
l-23 4 23 2 c15 1 26 -7 34 -24z m1633 -13 c18 -20 24 -32 15 -30 -16 3 -50
46 -50 62 0 5 1 7 3 5 1 -2 16 -19 32 -37z m-1845 15 c0 -7 -7 -22 -16 -33 -8
-10 -13 -13 -9 -6 3 6 1 12 -6 12 -8 0 -5 8 7 19 23 24 24 24 24 8z m-77 -17
c-5 -21 -33 -49 -33 -33 0 9 29 53 35 53 2 0 1 -9 -2 -20z m1590 3 c-4 -11 -3
-14 5 -9 7 4 12 2 12 -3 0 -13 -3 -13 -24 -5 -13 5 -14 9 -5 20 15 19 20 18
12 -3z m39 -16 c-5 -20 -6 -20 -13 -1 -11 29 -10 34 5 28 8 -3 12 -13 8 -27z
m50 -4 c2 -31 7 -37 22 -35 11 2 15 -1 11 -7 -3 -6 -1 -11 5 -11 6 0 8 -5 4
-12 -6 -9 -9 -9 -12 0 -2 7 -10 12 -17 12 -13 0 -35 49 -35 76 0 32 19 11 22
-23z m188 -47 c0 -5 -9 3 -20 17 -11 14 -20 29 -20 34 1 10 39 -39 40 -51z
m-155 34 c3 -5 1 -10 -4 -10 -6 0 -11 5 -11 10 0 6 2 10 4 10 3 0 8 -4 11 -10z
m-1470 -12 c5 4 5 1 1 -6 -6 -10 -11 -10 -22 -1 -8 6 -14 14 -14 16 0 3 6 0
13 -6 8 -6 18 -7 22 -3z m1726 -20 c11 -21 11 -22 -4 -10 -14 12 -15 10 -12
-16 2 -19 -1 -32 -9 -35 -9 -4 -11 2 -8 19 2 14 0 24 -7 24 -6 0 -3 9 6 20 21
25 20 25 34 -2z m-58 6 c-7 -3 -9 -12 -6 -20 8 -21 -5 -17 -17 6 -9 17 -8 20
12 19 13 0 18 -3 11 -5z m94 -13 c1 -9 4 -29 7 -46 5 -27 5 -27 -3 -4 -4 14
-13 34 -19 45 -8 16 -8 21 1 21 7 0 13 -7 14 -16z m33 -16 c7 -9 8 -15 2 -15
-5 0 -12 7 -16 15 -3 8 -4 15 -2 15 2 0 9 -7 16 -15z m-1818 -4 c8 11 9 11 5
-1 -2 -8 -11 -16 -20 -18 -13 -3 -15 1 -10 14 5 13 8 14 11 5 4 -11 6 -11 14
0z m1778 -38 c0 -7 -6 -13 -13 -13 -12 0 -14 17 -8 50 2 9 21 -25 21 -37z
m-1878 12 c10 2 20 0 23 -5 2 -4 18 -6 35 -4 35 4 39 -9 10 -34 -25 -21 -60
-24 -60 -5 0 8 -4 11 -10 8 -5 -3 -10 -1 -10 4 0 6 7 11 15 11 8 0 15 -4 15
-10 0 -5 5 -10 10 -10 7 0 7 6 0 19 -7 14 -18 18 -34 15 -16 -3 -26 2 -30 12
-5 13 -3 14 6 7 7 -6 21 -9 30 -8z m1633 -14 c-6 -5 -25 10 -25 20 0 5 6 4 14
-3 8 -7 12 -15 11 -17z m315 -2 c0 -6 -4 -7 -10 -4 -5 3 -10 11 -10 16 0 6 5
7 10 4 6 -3 10 -11 10 -16z m40 2 c0 -5 6 -16 14 -23 18 -18 32 -63 17 -54 -6
4 -11 12 -11 18 0 5 -9 23 -21 39 -11 16 -16 29 -10 29 6 0 11 -4 11 -9z m-78
-48 c2 -16 8 -27 15 -26 7 2 10 -4 6 -12 -4 -13 -8 -12 -23 4 -13 16 -19 18
-29 8 -10 -9 -15 -8 -27 7 -7 11 -11 22 -8 25 3 3 11 -2 19 -12 11 -16 13 -16
19 -1 3 9 4 20 0 25 -3 5 2 9 10 9 9 0 16 -11 18 -27z m-2108 -8 c-4 -8 -8
-15 -10 -15 -2 0 -4 7 -4 15 0 8 4 15 10 15 5 0 7 -7 4 -15z m268 -3 c-7 -2
-12 -11 -12 -20 0 -11 -3 -13 -8 -6 -4 6 -14 14 -22 17 -10 4 -8 6 8 6 12 1
22 6 22 12 0 5 5 7 12 3 9 -6 9 -9 0 -12z m1913 8 c3 -5 1 -10 -4 -10 -6 0
-11 5 -11 10 0 6 2 10 4 10 3 0 8 -4 11 -10z m-2174 -41 c-17 -16 -21 -17 -21
-4 0 8 7 15 15 15 8 0 14 3 14 8 -3 16 3 26 8 14 3 -8 -4 -22 -16 -33z m1985
23 c-3 -2 -1 -13 5 -23 5 -11 7 -19 5 -19 -3 0 -12 13 -21 30 -14 27 -14 29 0
23 9 -3 14 -8 11 -11z m-2016 -28 c0 -8 -4 -12 -10 -9 -5 3 -10 10 -10 16 0 5
5 9 10 9 6 0 10 -7 10 -16z m131 -34 c20 0 7 -18 -16 -22 -28 -6 -43 7 -20 16
8 3 16 13 16 23 1 17 2 17 6 1 2 -10 9 -18 14 -18z m2119 -13 c0 -16 -18 3
-23 25 -6 22 -5 22 8 4 8 -11 15 -24 15 -29z m-2200 23 c0 -5 -5 -10 -11 -10
-5 0 -7 5 -4 10 3 6 8 10 11 10 2 0 4 -4 4 -10z m2070 0 c0 -5 -11 -9 -24 -8
-14 1 -22 6 -20 10 7 12 44 10 44 -2z m-2108 -44 c7 5 8 2 2 -7 -5 -8 -8 -23
-6 -34 l2 -20 -9 20 c-5 11 -9 31 -9 45 0 16 2 19 5 7 2 -9 9 -14 15 -11z
m2158 14 c0 -5 -5 -10 -11 -10 -5 0 -7 5 -4 10 3 6 8 10 11 10 2 0 4 -4 4 -10z
m-2117 -50 c-7 -8 -22 24 -16 34 4 5 10 1 13 -10 4 -10 6 -21 3 -24z m2147 -5
c0 -9 -6 -12 -15 -9 -8 4 -15 10 -15 15 0 5 7 9 15 9 8 0 15 -7 15 -15z
m-2173 -27 c-3 -8 -6 -5 -6 6 -1 11 2 17 5 13 3 -3 4 -12 1 -19z m106 6 c7 -8
-3 -34 -13 -34 -5 0 -8 9 -7 20 1 20 8 25 20 14z m2091 -19 c3 -8 12 -15 19
-15 8 0 19 -12 26 -26 10 -23 9 -26 -4 -21 -8 4 -15 2 -15 -3 0 -6 -4 -10 -10
-10 -14 0 -12 27 3 33 8 4 6 6 -4 6 -16 1 -46 51 -30 51 5 0 11 -7 15 -15z
m-2167 -17 c-3 -8 -6 -5 -6 6 -1 11 2 17 5 13 3 -3 4 -12 1 -19z m43 12 c0 -5
-7 -10 -15 -10 -8 0 -15 5 -15 10 0 6 7 10 15 10 8 0 15 -4 15 -10z m2090 -15
c10 -12 10 -15 -2 -15 -8 0 -15 7 -15 15 0 8 1 15 2 15 2 0 8 -7 15 -15z m100
-75 c12 -23 5 -26 -16 -6 -16 17 -18 26 -4 26 5 0 14 -9 20 -20z m-10 -45 c0
-8 -4 -15 -10 -15 -5 0 -7 7 -4 15 4 8 8 15 10 15 2 0 4 -7 4 -15z m-3 -61
c-3 -3 -12 -4 -19 -1 -8 3 -5 6 6 6 11 1 17 -2 13 -5z m-2287 -59 c0 -14 -4
-25 -8 -25 -4 0 -8 11 -8 25 0 14 4 25 8 25 4 0 8 -11 8 -25z m2345 15 c3 -5
1 -10 -4 -10 -6 0 -11 5 -11 10 0 6 2 10 4 10 3 0 8 -4 11 -10z m22 -97 c9
-32 18 -60 18 -63 4 -15 18 -47 26 -62 7 -15 5 -18 -14 -18 -19 0 -25 8 -35
47 -10 36 -15 44 -22 33 -8 -12 -10 -10 -10 7 0 12 5 25 11 29 10 6 7 30 -7
68 -3 9 -1 16 5 16 6 0 18 -26 28 -57z m-57 -27 c0 -3 -4 -8 -10 -11 -5 -3
-10 -1 -10 4 0 6 5 11 10 11 6 0 10 -2 10 -4z m117 -132 c-3 -3 -12 -4 -19 -1
-8 3 -5 6 6 6 11 1 17 -2 13 -5z m8 -24 c3 -5 2 -10 -4 -10 -5 0 -13 5 -16 10
-3 6 -2 10 4 10 5 0 13 -4 16 -10z m-2513 -192 c-7 -7 -12 -8 -12 -2 0 14 12
26 19 19 2 -3 -1 -11 -7 -17z m2568 -84 c0 -17 -22 -14 -28 4 -2 7 3 12 12 12
9 0 16 -7 16 -16z m-2550 -48 c0 -8 -4 -18 -10 -21 -5 -3 -10 3 -10 14 0 12 5
21 10 21 6 0 10 -6 10 -14z m2517 -34 c-25 -3 -28 -7 -23 -30 7 -30 -7 -12
-18 23 -6 19 -3 21 31 16 35 -5 35 -6 10 -9z m-2584 -82 c1 -8 -5 -15 -13 -15
-10 0 -14 8 -12 24 1 13 -5 29 -15 37 -17 13 -17 13 0 14 9 0 17 6 18 13 1 12
18 -44 22 -73z m48 -2 l18 -47 -26 10 c-20 7 -28 6 -35 -3 -11 -18 -10 -30 2
-23 6 3 10 2 10 -3 0 -6 -10 -9 -23 -8 -23 1 -35 26 -13 26 20 0 46 59 41 93
-5 34 -3 30 26 -45z m2569 68 c0 -9 -40 -13 -46 -5 -3 5 6 9 20 9 14 0 26 -2
26 -4z m-2613 -28 c-3 -8 -6 -5 -6 6 -1 11 2 17 5 13 3 -3 4 -12 1 -19z m2603
-10 c0 -19 -2 -20 -10 -8 -13 19 -13 30 0 30 6 0 10 -10 10 -22z m-57 -20 c3
-18 9 -42 13 -53 7 -17 6 -18 -8 -7 -13 10 -17 10 -20 0 -3 -7 -7 -3 -10 9 -4
14 -2 22 6 20 10 -2 10 4 -1 46 -3 9 -1 17 5 17 5 0 12 -15 15 -32z m34 -10
c24 -49 32 -88 20 -88 -7 0 -4 -5 6 -11 20 -12 23 -29 3 -29 -8 0 -20 25 -31
62 -9 34 -19 68 -22 75 -9 23 13 14 24 -9z m-2630 -10 c-3 -8 -6 -5 -6 6 -1
11 2 17 5 13 3 -3 4 -12 1 -19z m2660 -10 c-3 -8 -6 -5 -6 6 -1 11 2 17 5 13
3 -3 4 -12 1 -19z m-2557 -53 c-7 -8 -16 -12 -21 -9 -13 8 -1 24 18 24 13 0
13 -3 3 -15z m-85 -94 c-10 -26 -27 4 -19 34 l7 29 9 -24 c5 -13 6 -30 3 -39z
m2641 -18 c-10 -26 -18 -8 -9 23 5 21 8 24 11 11 2 -10 1 -25 -2 -34z m-2605
-10 c-12 -20 -14 -14 -5 12 4 9 9 14 11 11 3 -2 0 -13 -6 -23z m-40 -12 c0
-12 3 -11 9 4 7 15 8 10 4 -16 -4 -25 -1 -41 10 -52 18 -18 21 -37 6 -37 -5 0
-10 4 -10 9 0 5 -7 17 -16 26 -23 22 -35 82 -18 82 8 0 14 -7 15 -16z m170
-68 c-8 -15 -10 -15 -11 -2 0 17 10 32 18 25 2 -3 -1 -13 -7 -23z m29 7 c-6
-11 -13 -20 -16 -20 -2 0 0 9 6 20 6 11 13 20 16 20 2 0 0 -9 -6 -20z m2317
-32 c-3 -8 -6 -5 -6 6 -1 11 2 17 5 13 3 -3 4 -12 1 -19z m-2417 2 c0 -5 -2
-10 -4 -10 -3 0 -8 5 -11 10 -3 6 -1 10 4 10 6 0 11 -4 11 -10z m2470 3 c0 -5
-5 -15 -10 -23 -8 -12 -10 -11 -10 8 0 12 5 22 10 22 6 0 10 -3 10 -7z m-2320
-141 c0 -5 -6 -14 -12 -20 -10 -8 -13 -2 -14 23 0 27 2 31 13 20 7 -8 13 -18
13 -23z m-36 -34 c-2 -24 -1 -37 2 -30 9 19 27 14 19 -5 -4 -10 -7 -34 -7 -53
1 -28 -1 -31 -7 -15 -5 11 -6 24 -3 29 3 5 -2 6 -12 3 -11 -4 -19 -1 -23 11
-6 14 -8 13 -13 -8 -4 -14 -4 -29 0 -35 12 -17 18 -55 9 -55 -5 0 -12 12 -15
28 -4 15 -10 29 -13 32 -4 3 -12 18 -19 34 -11 25 -11 28 3 23 9 -4 15 -1 15
9 0 24 34 12 42 -16 4 -15 5 -7 2 19 -3 25 0 49 7 57 17 20 18 18 13 -28z m59
10 c-6 -37 -23 -62 -23 -36 0 20 17 68 25 68 2 0 2 -15 -2 -32z m2173 -54 c-5
-18 -3 -24 5 -18 8 4 9 3 5 -5 -9 -14 -47 7 -54 30 -2 8 3 5 12 -6 16 -20 16
-20 22 3 9 31 18 28 10 -4z m-2167 -41 c-9 -63 -4 -93 14 -93 7 0 12 -16 13
-36 1 -33 -1 -35 -12 -18 -7 11 -17 24 -21 29 -5 6 -10 30 -12 55 -1 25 -7 49
-12 55 -5 5 -9 18 -8 30 0 20 0 20 9 0 7 -19 9 -18 19 8 16 41 19 33 10 -30z
m18 -20 c-3 -10 -5 -4 -5 12 0 17 2 24 5 18 2 -7 2 -21 0 -30z m90 -80 c-3
-10 -5 -2 -5 17 0 19 2 27 5 18 2 -10 2 -26 0 -35z m-149 -39 c-1 -41 -3 -44
-17 -28 -12 12 -13 18 -3 21 6 3 12 16 12 29 0 13 2 24 5 24 3 0 4 -20 3 -46z
m-24 21 c3 -8 1 -15 -3 -15 -5 0 -11 7 -15 15 -3 8 -1 15 3 15 5 0 11 -7 15
-15z m336 -75 c0 -5 -7 -10 -16 -10 -8 0 -12 5 -9 10 3 6 10 10 16 10 5 0 9
-4 9 -10z m-298 -32 c-7 -7 -12 -8 -12 -2 0 6 3 14 7 17 3 4 9 5 12 2 2 -3 -1
-11 -7 -17z m301 -2 c3 -8 0 -17 -8 -19 -7 -3 -15 3 -18 14 -6 22 18 27 26 5z
m1202 -196 c4 -6 12 -7 18 -4 7 4 7 2 -1 -7 -7 -8 -17 -15 -22 -15 -6 -1 -12
-3 -15 -4 -3 -1 -9 -3 -15 -4 -5 0 -10 -4 -10 -8 0 -5 0 -13 0 -19 0 -9 4 -9
13 0 11 8 18 6 32 -9 13 -14 14 -20 5 -20 -7 0 -10 -3 -7 -6 3 -4 2 -15 -4
-26 -8 -15 -14 -17 -24 -8 -9 8 -13 7 -11 -2 0 -7 -3 -13 -9 -13 -5 0 -10 10
-10 21 0 12 -9 32 -20 45 -11 12 -15 20 -9 16 6 -3 24 12 40 33 30 42 39 47
49 30z m111 -22 c10 -13 12 -17 4 -10 -20 17 -35 15 -20 -3 10 -12 10 -15 -1
-15 -10 0 -10 -3 -1 -12 7 -7 12 -16 12 -22 0 -6 -5 -5 -11 1 -6 6 -18 9 -25
6 -8 -3 -14 0 -14 7 0 6 4 9 9 6 5 -3 12 1 15 10 3 8 2 12 -3 9 -5 -3 -13 0
-17 6 -5 8 -3 9 6 4 10 -6 12 -4 7 9 -4 10 -3 15 3 11 6 -3 10 -1 10 4 0 16 5
14 26 -11z m-730 -46 c-3 -3 -6 1 -6 9 0 11 -2 11 -8 1 -6 -8 -9 -1 -9 19 l0
31 14 -27 c8 -15 12 -29 9 -33z m-139 31 c-4 -3 1 -16 10 -27 18 -21 18 -21
-4 -2 -20 16 -23 36 -6 36 4 0 3 -3 0 -7z m-269 -28 c-3 -3 -9 2 -12 12 -6 14
-5 15 5 6 7 -7 10 -15 7 -18z m86 7 c3 -5 -1 -9 -9 -9 -8 0 -12 4 -9 9 3 4 7
8 9 8 2 0 6 -4 9 -8z m26 -12 c-6 -11 -13 -20 -16 -20 -2 0 0 9 6 20 6 11 13
20 16 20 2 0 0 -9 -6 -20z m30 -26 c0 -8 -19 -13 -24 -6 -3 5 1 9 9 9 8 0 15
-2 15 -3z m810 -20 c0 -8 -4 -14 -9 -14 -6 0 -9 9 -8 19 1 22 17 18 17 -5z
m-630 -5 c0 -6 -4 -7 -10 -4 -5 3 -10 11 -10 16 0 6 5 7 10 4 6 -3 10 -11 10
-16z m486 6 c-1 -8 -5 -17 -8 -21 -5 -4 -4 16 1 34 3 9 9 -1 7 -13z m-691 -15
c3 -5 2 -10 -4 -10 -5 0 -13 5 -16 10 -3 6 -2 10 4 10 5 0 13 -4 16 -10z m70
-10 c3 -5 1 -10 -4 -10 -6 0 -11 5 -11 10 0 6 2 10 4 10 3 0 8 -4 11 -10z
m745 -20 c0 -5 -4 -10 -10 -10 -5 0 -11 -15 -11 -32 l-1 -33 -7 30 c-7 29 2
55 20 55 5 0 9 -4 9 -10z m-710 -36 c0 -8 -4 -14 -8 -14 -4 0 -8 9 -8 19 0 11
4 17 8 15 4 -3 8 -12 8 -20z m732 -4 c5 -32 -7 -42 -14 -12 -4 16 0 42 7 42 1
0 5 -13 7 -30z m307 14 c6 -6 -1 -11 -29 -17 -21 -5 -26 -2 -27 14 -2 18 2 20
25 14 15 -4 29 -9 31 -11z m-1108 -8 c5 3 9 0 9 -6 0 -15 -23 -7 -26 8 -1 7 0
8 3 2 2 -5 9 -8 14 -4z m649 -26 c0 -5 -7 -7 -15 -4 -8 4 -15 8 -15 10 0 2 7
4 15 4 8 0 15 -4 15 -10z m-580 -10 c0 -5 -2 -10 -4 -10 -3 0 -8 5 -11 10 -3
6 -1 10 4 10 6 0 11 -4 11 -10z m830 -9 c0 -11 -59 -26 -67 -18 -3 3 10 10 28
16 19 5 35 10 37 10 1 1 2 -3 2 -8z m-80 -11 c0 -5 -4 -10 -10 -10 -5 0 -10 5
-10 10 0 6 5 10 10 10 6 0 10 -4 10 -10z"/>
<path d="M3508 5248 c-3 -18 -2 -44 3 -58 5 -19 7 -11 8 33 1 63 -4 75 -11 25z"/>
<path d="M3567 5249 c4 -13 8 -18 11 -10 2 7 -1 18 -6 23 -8 8 -9 4 -5 -13z"/>
<path d="M3580 5095 c11 -13 10 -14 -5 -9 -13 5 -16 4 -11 -4 4 -7 1 -12 -9
-12 -9 0 -13 -4 -10 -10 3 -5 2 -10 -4 -10 -5 0 -13 5 -17 12 -5 8 -9 6 -14
-7 -5 -15 -8 -13 -19 13 -16 38 -24 40 -39 10 -6 -13 -11 -17 -11 -10 -1 17
-30 15 -37 -3 -4 -9 -14 -14 -23 -13 -10 2 -16 -4 -16 -15 0 -10 -6 -22 -13
-26 -20 -12 -11 -55 13 -59 11 -2 29 -14 40 -27 17 -20 32 -24 96 -28 42 -2
81 -7 87 -11 7 -4 12 -1 12 6 0 9 3 9 10 -2 5 -8 10 -10 10 -5 0 6 12 12 28
13 16 1 39 15 56 33 23 26 27 38 23 66 -4 19 -12 41 -18 50 -16 18 -74 48
-113 57 -26 6 -28 5 -16 -9z"/>
<path d="M3280 5014 c-7 -17 -7 -32 0 -45 15 -27 17 -24 16 26 -1 25 -2 45 -4
45 -1 0 -7 -12 -12 -26z"/>
<path d="M3232 4995 c0 -16 2 -22 5 -12 2 9 2 23 0 30 -3 6 -5 -1 -5 -18z"/>
<path d="M3782 4930 c-8 -13 -8 -20 -2 -20 6 0 13 7 17 15 9 24 -1 27 -15 5z"/>
<path d="M3360 4909 c0 -5 5 -7 10 -4 6 3 10 8 10 11 0 2 -4 4 -10 4 -5 0 -10
-5 -10 -11z"/>
<path d="M3425 4879 c4 -5 21 -9 38 -9 18 0 52 -7 77 -15 l45 -15 -65 6 c-35
3 -71 9 -80 14 -9 5 -22 5 -31 -1 -25 -16 7 -26 96 -28 64 -1 85 2 85 11 0 7
-12 18 -27 25 -36 14 -145 25 -138 12z"/>
<path d="M3328 4873 c6 -2 18 -2 25 0 6 3 1 5 -13 5 -14 0 -19 -2 -12 -5z"/>
<path d="M3328 4823 c6 -2 18 -2 25 0 6 3 1 5 -13 5 -14 0 -19 -2 -12 -5z"/>
<path d="M3439 4764 c-9 -11 -9 -15 -1 -10 8 5 12 1 13 -11 0 -10 2 -27 4 -38
2 -10 -2 -26 -8 -34 -9 -12 -9 -13 1 -7 7 4 12 2 12 -8 0 -8 -6 -16 -12 -19
-7 -3 4 -4 24 -3 29 1 38 5 38 19 0 9 5 17 12 17 7 0 3 8 -9 17 -18 15 -19 19
-7 38 16 25 7 41 -27 50 -18 4 -30 1 -40 -11z"/>
<path d="M3561 4704 c0 -11 3 -14 6 -6 3 7 2 16 -1 19 -3 4 -6 -2 -5 -13z"/>
<path d="M3535 4620 c3 -5 8 -10 11 -10 2 0 4 5 4 10 0 6 -5 10 -11 10 -5 0
-7 -4 -4 -10z"/>
<path d="M3560 4620 c0 -5 5 -10 10 -10 6 0 10 5 10 10 0 6 -4 10 -10 10 -5 0
-10 -4 -10 -10z"/>
<path d="M3459 4589 c-9 -6 8 -9 45 -9 33 0 57 2 55 4 -10 9 -88 13 -100 5z"/>
<path d="M3391 4538 c0 -28 2 -30 9 -13 12 28 12 45 0 45 -5 0 -10 -15 -9 -32z"/>
<path d="M3422 4554 c-5 -10 -7 -35 -5 -56 4 -22 1 -44 -6 -52 -7 -8 -11 -27
-10 -43 5 -65 0 -85 -20 -78 -17 5 -19 1 -19 -40 1 -50 15 -55 36 -12 20 42
27 32 27 -38 0 -68 -9 -83 -25 -40 -11 29 -30 33 -30 8 -1 -17 -1 -17 -11 0
-13 23 -25 22 -32 -3 -7 -28 -25 -25 -20 4 3 13 0 34 -7 46 -16 30 -6 36 18
10 l20 -21 4 40 3 39 -44 7 c-26 4 -46 3 -50 -4 -8 -12 -91 -32 -103 -25 -4 3
-8 0 -8 -5 0 -6 -6 -11 -12 -11 -26 0 -117 -44 -111 -53 4 -6 -1 -8 -11 -4
-14 6 -17 3 -12 -10 6 -15 4 -15 -14 2 -22 20 -28 8 -7 -15 6 -8 2 -7 -9 3
-21 17 -22 17 -27 -3 -7 -26 5 -33 38 -20 30 11 65 5 65 -11 0 -6 4 -8 9 -5
10 6 3 44 -11 62 -6 8 -1 10 16 7 19 -4 23 -10 20 -29 -3 -18 -1 -22 11 -18 8
4 15 15 15 26 0 11 5 18 13 15 7 -2 12 -19 11 -40 -1 -28 3 -38 19 -43 15 -5
17 -8 6 -15 -9 -5 -21 -1 -35 12 -27 26 -52 15 -56 -24 -2 -17 -8 -32 -14 -34
-7 -2 -10 5 -7 20 3 14 0 28 -6 31 -5 4 -8 13 -5 21 5 11 -3 14 -30 13 -40 -1
-57 -13 -24 -15 12 -1 28 -8 36 -16 12 -13 12 -19 0 -43 -26 -56 -119 -34 -98
22 7 17 6 24 -3 25 -6 0 -1 5 13 10 24 10 24 11 7 24 -21 15 -51 9 -40 -8 3
-6 1 -7 -6 -3 -15 10 -41 -12 -35 -29 3 -7 1 -16 -5 -20 -7 -3 -8 0 -5 9 8 21
-2 20 -37 -5 -16 -11 -26 -25 -22 -31 4 -7 0 -9 -10 -5 -9 3 -19 1 -23 -5 -4
-7 -3 -8 4 -4 7 4 12 1 12 -8 0 -9 -6 -16 -12 -16 -10 0 -10 -2 0 -9 10 -6 10
-10 -3 -21 -8 -7 -15 -18 -15 -24 0 -6 4 -5 9 3 12 19 52 25 48 8 -1 -6 6 -11
16 -11 14 2 15 -1 6 -12 -9 -11 -9 -14 0 -14 8 0 7 -6 -3 -16 -9 -8 -16 -19
-16 -24 0 -4 -13 -13 -30 -19 -16 -5 -30 -7 -30 -4 0 3 -7 0 -15 -7 -14 -12
-19 -7 -16 14 1 4 -2 13 -7 20 -13 17 -1 58 25 84 7 7 13 19 13 25 -1 7 -14
-5 -31 -25 -18 -22 -36 -35 -42 -31 -7 3 -9 2 -4 -2 4 -5 -6 -23 -23 -40 l-31
-32 25 -26 c14 -15 27 -24 29 -19 9 14 -5 72 -16 65 -6 -4 -7 -1 -3 6 5 7 11
10 14 7 3 -3 12 0 20 7 13 11 14 9 2 -10 -12 -19 -12 -24 3 -41 10 -11 32 -22
48 -26 18 -3 28 -10 24 -17 -4 -6 -13 -8 -20 -5 -7 2 -18 -1 -25 -7 -10 -9
-11 -9 -6 1 5 7 1 12 -10 12 -14 0 -14 -2 -3 -16 25 -30 20 -45 -9 -26 -25 16
-26 16 -19 -1 4 -10 7 -21 7 -23 0 -3 4 -3 9 0 5 4 8 -2 6 -11 -2 -10 -4 -22
-5 -28 0 -5 -7 1 -15 15 -7 14 -17 25 -22 24 -8 0 -43 39 -43 49 0 2 12 2 28
0 25 -4 25 -3 10 10 -10 8 -18 20 -18 27 0 7 -3 10 -7 7 -3 -4 -12 -2 -18 3
-9 7 -16 6 -23 -2 -16 -20 -62 -109 -82 -159 -10 -26 -27 -66 -38 -90 -17 -39
-27 -78 -62 -234 -13 -58 -24 -258 -14 -252 5 3 10 -27 12 -66 1 -39 4 -73 7
-75 2 -2 16 -1 31 2 l28 7 -30 25 c-19 17 -23 24 -10 20 11 -4 24 0 32 11 12
17 13 16 14 -6 0 -23 1 -23 19 -7 11 10 26 16 33 14 8 -3 3 -11 -15 -22 -32
-21 -36 -36 -7 -29 28 7 25 -13 -2 -21 -22 -6 -21 -7 10 -21 38 -17 43 -34 7
-27 -17 3 -25 0 -23 -8 2 -7 -3 -15 -9 -17 -7 -3 -13 1 -13 7 0 7 -8 9 -20 5
-23 -7 -28 10 -5 19 24 9 17 31 -10 31 -29 0 -32 -21 -14 -74 8 -24 9 -39 1
-56 -6 -14 -7 -27 -2 -30 4 -3 10 3 12 12 3 10 10 -4 16 -32 14 -57 16 -64 26
-87 4 -9 5 -21 2 -26 -3 -5 10 -2 29 7 37 17 41 38 7 33 -35 -5 -25 11 20 36
45 24 60 22 36 -5 -24 -28 -11 -47 15 -23 15 14 24 17 31 9 8 -7 2 -18 -19
-35 l-30 -25 25 2 c50 3 55 0 34 -19 -10 -11 -28 -18 -39 -18 -11 1 -26 -8
-33 -19 -12 -18 -13 -16 -8 18 5 36 4 37 -22 31 -15 -4 -29 -8 -31 -10 -7 -6
112 -186 174 -262 61 -76 167 -167 179 -155 3 4 6 1 6 -6 0 -7 4 -10 9 -6 6 3
15 -4 21 -15 6 -11 16 -20 23 -20 7 0 28 -11 47 -24 35 -23 96 -33 83 -13 -3
5 -1 7 4 4 6 -4 16 0 22 7 16 19 -1 28 -31 17 -47 -18 -100 33 -67 66 8 8 7
13 -2 18 -16 11 -42 -24 -29 -40 6 -7 3 -11 -9 -11 -13 0 -16 6 -13 23 4 23
-11 32 -23 13 -12 -19 -26 -11 -15 9 14 26 13 38 -2 23 -7 -7 -16 -12 -21 -12
-11 0 2 43 16 51 5 4 6 12 2 19 -5 9 -4 11 3 6 7 -4 12 -2 12 4 0 6 4 9 8 6 5
-3 6 -20 4 -38 -5 -30 -3 -32 11 -19 9 7 14 17 11 22 -3 5 -1 9 5 9 18 0 21
-17 6 -30 -16 -13 -10 -35 6 -24 5 3 7 10 4 15 -4 5 6 9 22 8 15 0 22 -3 16
-6 -26 -10 -13 -25 17 -19 17 3 29 2 25 -3 -3 -5 4 -7 15 -4 31 8 25 18 -40
64 -41 28 -60 49 -60 63 0 16 -2 18 -9 7 -8 -12 -12 -12 -25 -2 -9 8 -16 10
-16 7 0 -4 -6 -1 -12 6 -7 8 -37 39 -66 71 -29 31 -51 61 -48 66 3 5 -5 20
-19 32 -13 13 -25 29 -25 36 0 6 -9 15 -20 18 -11 4 -17 11 -14 17 10 15 -18
59 -33 53 -8 -2 -11 0 -8 5 8 13 -30 116 -55 148 -11 13 -17 28 -14 33 3 5 -2
30 -12 56 -13 40 -15 73 -10 200 4 84 11 176 16 204 6 29 10 54 10 56 0 2 5 1
10 -2 7 -4 9 2 5 17 -3 14 8 51 29 98 18 41 30 76 25 78 -5 2 -4 12 2 23 5 11
15 16 21 13 7 -5 8 -2 3 5 -4 8 7 28 32 54 22 23 59 67 84 97 24 30 47 56 50
58 4 2 47 32 95 68 112 83 178 116 313 159 136 42 272 52 407 29 49 -9 95 -16
102 -16 6 -1 12 -6 12 -11 0 -5 8 -3 18 4 9 7 14 9 9 4 -4 -5 7 -15 25 -22 28
-12 36 -12 65 4 17 9 40 33 50 53 19 37 31 50 48 50 6 0 5 -3 -1 -8 -13 -8
-28 -62 -17 -62 3 0 15 7 25 17 22 20 36 10 18 -12 -10 -12 -10 -19 -2 -27 9
-9 18 -6 36 11 l24 23 -2 -25 c0 -14 -4 -23 -8 -21 -4 3 -13 -16 -19 -41 -6
-25 -15 -45 -19 -45 -14 0 -20 31 -10 50 13 25 13 30 -4 30 -8 0 -16 -7 -20
-15 -9 -26 -29 -17 -22 9 8 33 -7 40 -29 16 -10 -11 -28 -20 -39 -20 -20 -1
-20 -2 4 -21 14 -12 56 -37 93 -55 37 -19 65 -39 62 -44 -3 -6 1 -7 9 -4 9 4
18 -1 22 -10 3 -9 10 -14 14 -11 4 3 13 -2 20 -10 16 -19 31 -19 24 -1 -3 9 5
21 19 31 14 9 31 31 38 48 l13 32 3 -32 c5 -37 10 -40 29 -15 12 16 13 16 19
-1 4 -9 2 -23 -4 -31 -15 -18 -3 -27 28 -19 35 8 34 8 20 35 -13 25 -49 54
-61 50 -5 -1 -8 3 -8 8 0 6 5 10 11 10 7 0 0 9 -15 21 -14 11 -24 24 -22 28 3
4 -1 8 -9 8 -13 0 -12 -4 2 -19 19 -22 8 -25 -13 -3 -9 8 -16 24 -17 36 -1 20
-46 62 -68 65 -5 1 -14 2 -21 3 -6 0 -8 4 -5 8 4 3 -11 17 -34 31 -22 13 -43
21 -46 18 -4 -3 -1 -6 6 -6 7 0 9 -4 6 -10 -4 -6 1 -7 11 -3 12 4 15 3 10 -5
-6 -11 5 -17 27 -13 4 0 7 -3 7 -9 0 -13 -6 -13 -40 5 -16 8 -31 24 -35 35 -4
11 -10 18 -15 15 -12 -7 -41 6 -34 16 3 5 -1 6 -9 3 -8 -3 -30 2 -48 10 -21
10 -24 13 -9 10 23 -6 23 -6 7 10 -10 10 -22 14 -29 9 -18 -10 -78 -10 -78 1
0 5 17 6 37 3 33 -6 35 -5 21 9 -14 14 -19 14 -53 0 -43 -18 -67 -21 -45 -5
11 8 5 9 -25 5 -26 -4 -35 -2 -25 4 31 19 -1 22 -39 3 -32 -16 -41 -17 -45 -7
-4 10 -26 14 -77 14 -73 0 -88 8 -29 15 18 2 40 10 49 17 15 12 15 11 1 -6
-13 -17 -13 -19 0 -14 8 2 16 16 16 29 1 13 5 38 8 54 6 25 5 27 -4 12 -11
-18 -12 -18 -25 0 -13 16 -13 14 -8 -18 6 -43 -13 -62 -33 -34 -7 10 -11 22
-8 27 4 5 -3 16 -15 24 -21 15 -30 64 -11 64 6 0 10 -4 10 -10 0 -5 5 -10 10
-10 6 0 10 8 8 17 -2 11 8 22 25 31 32 16 47 5 64 -43 l10 -30 5 38 c4 34 1
40 -21 49 -18 6 -22 11 -13 17 8 5 -12 9 -47 10 -47 1 -62 -2 -69 -15z m12
-170 c3 -8 2 -12 -4 -9 -6 3 -10 10 -10 16 0 14 7 11 14 -7z m146 -160 c0 -26
-16 -39 -56 -47 -27 -5 -32 -3 -42 27 -7 18 -12 40 -12 50 0 9 -4 14 -10 11
-5 -3 -10 -18 -10 -33 -1 -24 -2 -25 -11 -9 -14 24 14 57 47 57 13 0 26 5 29
10 10 15 65 -41 65 -66z m47 36 c6 -24 19 -26 27 -5 3 8 14 15 25 15 14 0 19
-5 15 -15 -7 -17 21 -21 31 -5 4 6 11 8 16 5 5 -4 3 -15 -6 -28 -8 -12 -15
-39 -15 -60 0 -23 -4 -36 -10 -32 -5 3 -10 23 -10 44 0 30 -4 40 -20 44 -19 5
-20 2 -14 -29 4 -20 2 -34 -4 -34 -12 0 -24 29 -16 41 3 5 2 14 -2 20 -4 7
-13 -1 -21 -20 -9 -17 -19 -28 -24 -25 -5 3 -4 14 2 26 6 11 8 33 5 49 -6 33
13 41 21 9z m-379 2 c19 17 33 -7 30 -55 -1 -26 -9 -42 -25 -52 -27 -18 -69
-20 -79 -4 -5 9 1 10 20 5 26 -6 63 14 49 28 -10 10 -25 7 -18 -4 3 -5 2 -10
-4 -10 -5 0 -11 6 -14 13 -3 9 -7 9 -20 -2 -17 -14 -19 -11 -21 24 -1 22 16
45 33 45 6 0 11 5 11 12 0 9 3 9 12 0 9 -9 15 -9 26 0z m578 -42 c19 8 24 6
24 -6 0 -10 6 -14 15 -11 25 10 26 -10 4 -52 -25 -49 -63 -57 -73 -16 -4 15
-11 22 -20 19 -20 -8 -19 54 2 65 10 6 18 6 20 1 2 -5 14 -5 28 0z m314 -94
c0 -2 -10 -3 -22 -2 -13 0 -23 6 -23 11 0 6 -4 17 -9 24 -5 8 5 5 22 -8 18
-12 32 -24 32 -25z m-1268 -22 c-4 -20 2 -32 23 -50 33 -28 26 -43 -10 -24
-19 10 -27 11 -39 1 -13 -11 -13 -15 4 -34 22 -23 25 -33 10 -42 -5 -3 -16 10
-24 28 -8 19 -20 38 -27 42 -7 5 -10 4 -5 -3 3 -6 2 -14 -4 -17 -6 -4 -10 -3
-9 2 4 26 -1 35 -15 24 -11 -10 -14 -9 -12 2 1 8 8 22 15 31 7 8 10 20 7 25
-4 5 2 14 11 20 13 7 23 5 36 -7 10 -9 17 -12 16 -7 -3 15 12 45 21 40 4 -2 5
-16 2 -31z m228 21 c10 -12 10 -15 -3 -15 -8 0 -17 7 -21 15 -3 8 -2 15 3 15
5 0 14 -7 21 -15z m1033 -37 c-5 -7 -9 -29 -8 -49 1 -20 -5 -45 -12 -55 -14
-18 -15 -18 -24 -1 -8 14 -14 16 -25 6 -11 -9 -16 -6 -24 16 -5 14 -10 32 -10
39 0 22 28 39 56 33 18 -3 29 1 37 14 6 10 13 16 16 14 2 -3 -1 -10 -6 -17z
m72 -38 c3 -5 1 -10 -4 -10 -6 0 -11 5 -11 10 0 6 2 10 4 10 3 0 8 -4 11 -10z
m-1325 -47 c0 -13 -3 -13 -15 -3 -8 7 -12 16 -9 21 8 13 24 1 24 -18z m-250
-232 c16 -30 12 -59 -10 -81 -27 -27 -62 -25 -89 4 -19 20 -22 29 -14 53 7 21
18 29 44 34 55 10 58 10 69 -10z m-118 -111 c9 -14 24 -20 46 -20 43 0 38 -24
-5 -28 -36 -4 -52 -31 -29 -48 17 -12 22 -34 8 -34 -4 0 -13 5 -20 12 -9 9
-12 8 -12 -7 -1 -19 -1 -19 -14 -2 -7 9 -21 17 -30 17 -24 0 -19 17 7 24 32 8
51 50 31 66 -16 14 -19 40 -4 40 5 0 15 -9 22 -20z m-27 -40 c3 -5 4 -14 0
-20 -8 -13 -35 -1 -35 16 0 16 26 19 35 4z m73 -38 c2 -7 -3 -12 -12 -12 -9 0
-16 7 -16 16 0 17 22 14 28 -4z m-39 -107 c22 -21 6 -61 -29 -74 -17 -5 -37
-8 -44 -5 -23 9 -37 51 -26 79 9 23 14 25 47 19 21 -3 44 -12 52 -19z m-19
-106 c0 -3 -11 -11 -25 -17 -16 -8 -25 -20 -25 -35 0 -16 9 -28 25 -35 31 -14
34 -36 4 -27 -14 5 -25 2 -30 -6 -13 -21 -11 -27 12 -34 24 -8 49 -59 42 -86
-6 -22 -55 -34 -82 -19 -12 6 -23 23 -26 38 -4 15 -10 35 -15 44 -8 13 -6 16
5 12 22 -9 45 14 45 43 0 20 -4 24 -20 20 -11 -3 -20 -1 -20 5 0 5 9 12 20 15
27 7 25 21 -2 25 -27 4 -21 23 6 22 18 -1 18 0 -2 17 -12 9 -22 19 -22 21 0 2
25 4 55 4 30 -1 55 -4 55 -7z m-9 -54 c-1 -15 -24 -12 -29 3 -3 9 2 13 12 10
10 -1 17 -7 17 -13z m4 -411 c13 -9 29 -13 35 -9 6 4 10 -6 10 -24 0 -25 -4
-31 -22 -32 -22 0 -22 -1 -3 -9 16 -6 22 -2 32 19 7 14 12 19 13 10 0 -8 -6
-23 -12 -32 -16 -20 -94 -54 -82 -36 5 9 2 10 -12 6 -18 -7 -18 -7 0 8 17 13
18 15 3 15 -24 0 -35 50 -13 65 9 7 16 17 16 24 0 15 6 14 35 -5z m131 -255
c3 -6 0 -15 -7 -21 -12 -7 -11 -9 1 -7 37 4 49 -1 43 -18 -4 -11 -3 -14 5 -9
9 5 9 1 2 -18 -5 -15 -6 -26 -1 -26 5 0 11 6 14 13 2 6 7 9 11 5 4 -3 2 -16
-4 -28 -15 -27 -6 -37 16 -19 16 13 17 11 10 -13 -6 -26 -4 -28 23 -28 16 0
33 -4 36 -10 3 -6 -5 -10 -19 -10 -19 0 -24 -4 -20 -15 5 -11 2 -13 -10 -9
-11 4 -19 -1 -24 -17 -6 -14 -11 -18 -16 -11 -4 6 -2 20 3 30 14 27 1 35 -22
15 -19 -18 -20 -17 -13 18 6 34 5 36 -18 32 -13 -3 -27 0 -30 6 -5 7 2 11 18
11 37 0 32 14 -9 30 -20 8 -41 21 -49 29 -17 20 -29 71 -17 71 12 0 23 -29 15
-41 -3 -5 2 -9 11 -9 9 0 13 4 10 10 -7 11 12 50 25 50 5 0 12 -5 16 -11z
m185 -222 c9 -7 16 -27 16 -44 0 -32 -2 -33 -40 -33 -37 0 -39 2 -33 24 3 14
1 28 -5 32 -9 5 -6 11 6 21 23 16 35 16 56 0z"/>
<path d="M3510 4256 c0 -7 6 -18 13 -26 10 -12 9 -12 -6 -1 -23 18 -32 8 -17
-19 10 -18 14 -20 21 -9 5 8 9 9 9 3 0 -6 7 -11 15 -11 8 0 15 6 15 14 0 7 -6
13 -12 13 -10 0 -9 3 1 9 17 11 8 27 -19 34 -12 3 -20 0 -20 -7z"/>
<path d="M3806 4182 c-4 -7 -1 -12 9 -12 13 0 16 -6 11 -25 -7 -26 8 -35 17
-10 8 19 -27 63 -37 47z"/>
<path d="M2616 3737 c3 -10 9 -15 12 -12 3 3 0 11 -7 18 -10 9 -11 8 -5 -6z"/>
<path d="M2531 3724 c0 -11 3 -14 6 -6 3 7 2 16 -1 19 -3 4 -6 -2 -5 -13z"/>
<path d="M2430 3474 c0 -8 5 -12 10 -9 6 3 10 10 10 16 0 5 -4 9 -10 9 -5 0
-10 -7 -10 -16z"/>
<path d="M2425 3200 c-3 -5 -2 -10 4 -10 5 0 13 5 16 10 3 6 2 10 -4 10 -5 0
-13 -4 -16 -10z"/>
<path d="M2470 3181 c0 -5 5 -13 10 -16 6 -3 10 -2 10 4 0 5 -4 13 -10 16 -5
3 -10 2 -10 -4z"/>
<path d="M2446 3157 c3 -10 9 -15 12 -12 3 3 0 11 -7 18 -10 9 -11 8 -5 -6z"/>
<path d="M2440 2870 c0 -5 7 -10 16 -10 8 0 12 5 9 10 -3 6 -10 10 -16 10 -5
0 -9 -4 -9 -10z"/>
<path d="M2491 2857 c-13 -21 -12 -21 5 -5 10 10 16 20 13 22 -3 3 -11 -5 -18
-17z"/>
<path d="M2605 2591 c-3 -5 -1 -12 5 -16 5 -3 10 1 10 9 0 18 -6 21 -15 7z"/>
<path d="M2780 2419 c0 -5 5 -7 10 -4 6 3 10 8 10 11 0 2 -4 4 -10 4 -5 0 -10
-5 -10 -11z"/>
<path d="M3510 4518 c0 -10 9 -27 20 -38 27 -27 27 -1 0 31 -16 20 -19 21 -20
7z"/>
<path d="M3595 4440 c0 -22 3 -40 7 -40 9 0 9 0 11 48 1 17 -3 32 -8 32 -6 0
-10 -18 -10 -40z"/>
<path d="M3556 4428 c-9 -36 -7 -55 7 -61 8 -3 12 9 13 39 2 47 -10 59 -20 22z"/>
<path d="M2955 4130 c3 -5 11 -10 16 -10 6 0 7 5 4 10 -3 6 -11 10 -16 10 -6
0 -7 -4 -4 -10z"/>
<path d="M3387 4112 c-9 -2 -15 -8 -12 -12 3 -5 -7 -12 -22 -16 -106 -23 -156
-38 -212 -64 -34 -17 -67 -27 -72 -24 -13 8 -11 -40 2 -53 6 -6 18 -9 25 -6
24 9 15 -5 -17 -28 -29 -20 -31 -20 -28 -3 1 11 -1 27 -6 37 -7 17 -8 17 -29
0 -19 -16 -19 -16 -7 0 11 14 11 17 -2 17 -8 0 -20 -7 -28 -16 -10 -13 -10
-17 0 -24 9 -5 10 -10 2 -14 -6 -4 -11 -2 -11 5 0 9 -4 9 -15 -1 -8 -6 -18 -9
-23 -6 -12 7 -84 -53 -77 -64 5 -8 -93 -125 -105 -125 -15 -1 -31 -19 -26 -32
3 -8 1 -11 -4 -8 -12 7 -44 -56 -75 -146 -22 -66 -22 -69 -4 -69 11 0 19 -7
19 -16 0 -14 -3 -14 -15 -4 -12 10 -19 10 -27 2 -9 -9 -9 -12 0 -12 7 0 12 -4
12 -10 0 -5 -8 -10 -17 -10 -10 0 -14 -4 -8 -8 16 -11 16 -32 1 -32 -9 0 -13
-10 -12 -25 0 -14 6 -25 11 -25 6 0 3 -5 -5 -10 -8 -5 -11 -10 -6 -10 5 0 2
-7 -5 -17 -11 -13 -11 -17 -1 -20 17 -6 15 -23 -3 -23 -8 0 -15 -7 -15 -15 0
-8 6 -15 13 -15 8 0 8 -3 -2 -9 -8 -5 -11 -16 -8 -25 4 -9 2 -16 -4 -16 -6 0
-7 -4 -4 -10 13 -22 35 -10 35 19 0 17 5 33 10 36 7 4 9 -2 4 -19 -3 -15 -2
-26 4 -26 5 0 12 9 15 21 7 25 40 22 45 -4 5 -26 -6 -50 -19 -42 -8 5 -8 10 0
18 13 13 14 27 2 27 -5 0 -12 -12 -15 -26 -5 -19 -12 -25 -25 -21 -15 4 -20
-2 -23 -29 -2 -19 0 -34 4 -34 4 0 8 -12 8 -27 0 -16 7 -53 16 -83 9 -30 19
-71 24 -90 4 -19 8 -28 9 -20 1 13 3 13 10 1 6 -9 6 -22 0 -32 -12 -23 -12
-32 1 -24 6 4 10 -9 11 -32 1 -38 1 -38 9 -8 4 17 8 23 9 15 0 -8 10 -21 21
-28 11 -7 20 -21 20 -32 0 -30 -18 -24 -23 8 -4 25 -4 25 -6 -5 -1 -26 3 -33
17 -33 11 0 27 9 37 20 16 18 16 20 2 20 -10 0 -17 5 -17 11 0 6 10 9 23 7 27
-4 35 -39 12 -58 -8 -7 -15 -27 -14 -44 0 -26 2 -28 9 -11 7 15 9 10 10 -25 2
-38 3 -41 10 -20 7 22 8 22 10 5 2 -13 6 -7 11 15 6 29 7 25 5 -23 -2 -33 1
-52 5 -45 5 7 9 23 9 36 0 12 4 22 9 22 5 0 6 -21 3 -47 -2 -27 -1 -44 4 -40
5 4 9 18 9 29 0 12 6 22 13 24 7 1 8 0 3 -2 -5 -3 -6 -22 -4 -42 6 -44 13 -55
13 -21 0 13 4 30 9 38 6 9 8 -5 5 -35 -3 -40 -2 -43 5 -19 9 30 9 30 11 -10 2
-32 4 -34 7 -12 7 44 23 31 24 -20 2 -34 3 -39 6 -18 5 34 25 61 22 30 -4 -37
1 -56 14 -54 6 1 20 -1 30 -6 26 -11 44 9 27 30 -11 13 -15 13 -21 3 -6 -9 -9
-6 -9 11 0 16 4 21 15 17 10 -4 17 3 21 22 3 15 7 32 9 39 5 15 85 57 93 49 5
-6 -41 -51 -73 -71 -22 -13 -29 -135 -8 -135 8 0 12 4 9 8 -3 5 -1 22 4 38 l8
29 1 -30 c1 -23 4 -27 11 -15 8 13 10 13 10 -1 0 -21 27 -32 34 -16 4 7 4 -4
1 -23 -3 -23 -2 -30 4 -21 7 11 10 10 14 -5 2 -10 5 4 6 32 1 32 7 56 16 64
12 10 15 9 16 -6 0 -18 1 -18 9 1 8 18 9 17 9 -7 1 -15 -3 -30 -9 -33 -16 -10
-11 -39 10 -58 19 -16 20 -16 20 1 0 14 2 15 10 2 9 -13 10 -13 10 0 1 8 7 2
15 -15 15 -30 15 -29 9 19 -5 44 -4 48 9 38 8 -7 13 -22 10 -32 -3 -11 -2 -28
3 -37 6 -13 10 -2 14 37 l7 55 2 -65 c2 -77 21 -65 21 14 0 59 11 55 15 -6 2
-24 7 -52 12 -63 6 -15 9 -7 14 35 l6 55 2 -55 c1 -40 4 -51 11 -40 8 12 10
12 10 -5 0 -17 2 -17 10 -5 8 12 10 12 10 1 0 -8 3 -12 6 -8 3 3 -3 19 -15 35
-12 17 -21 38 -21 48 0 16 3 15 17 -5 l16 -24 10 24 c8 20 11 21 14 7 6 -23
23 -23 23 0 1 11 6 7 17 -13 22 -42 20 -41 52 -17 16 12 31 18 34 14 2 -4 1 0
-2 8 -3 8 -5 87 -6 175 l0 161 -34 42 c-30 39 -37 42 -65 36 -42 -9 -40 -6
-61 -68 -20 -60 -29 -68 -38 -36 -3 12 0 20 8 20 7 0 20 19 30 42 16 41 16 42
-4 57 -11 9 -23 30 -27 47 -5 26 -15 36 -55 54 -27 13 -47 25 -45 27 6 6 100
-38 108 -51 4 -6 8 1 8 15 0 26 23 45 41 34 5 -4 6 0 3 8 -3 8 -1 18 5 21 5 4
13 -3 16 -14 4 -12 17 -25 30 -30 28 -11 46 -77 25 -90 -10 -6 -4 -18 21 -48
28 -34 35 -38 40 -24 5 14 8 12 14 -9 3 -14 5 -36 4 -50 -1 -13 -1 -58 -1
-101 l2 -76 50 -42 c28 -24 50 -39 48 -34 -2 5 2 10 7 11 6 1 9 -5 7 -14 -2
-9 2 -20 10 -25 10 -7 9 -11 -5 -22 -10 -8 -14 -17 -9 -19 4 -3 16 7 26 24 9
16 24 29 33 29 9 0 13 3 9 8 -4 4 -12 7 -17 7 -5 0 -9 3 -9 8 0 4 0 10 0 13 0
3 14 -4 30 -16 17 -12 28 -26 24 -31 -3 -5 -10 -6 -16 -3 -7 4 -8 2 -4 -5 6
-8 12 -9 20 -2 7 6 16 8 20 4 4 -4 4 0 0 10 -4 11 0 19 10 23 14 5 14 9 0 35
-13 26 -4 43 11 19 13 -20 27 -10 21 15 -4 14 -4 25 -1 25 9 0 45 -64 45 -80
-1 -12 -3 -11 -11 3 -10 17 -39 24 -39 10 0 -5 9 -19 20 -33 12 -14 18 -18 14
-8 -4 13 -1 16 15 13 18 -3 20 0 15 21 -7 26 13 35 22 9 4 -8 11 -15 16 -15 6
0 3 12 -7 26 -19 30 -13 43 12 23 15 -12 16 -12 10 3 -7 20 8 34 18 18 5 -8
11 -7 21 1 7 6 11 15 8 20 -3 5 0 10 5 10 6 1 16 2 23 3 18 2 19 39 1 66 l-16
25 27 -24 c29 -27 36 -19 9 11 -20 22 -6 24 25 2 13 -9 22 -11 22 -4 0 6 5 8
10 5 6 -3 10 -1 10 6 0 8 5 7 18 -2 15 -12 16 -12 5 2 -9 11 -9 19 -2 26 8 8
7 13 -2 18 -7 5 -10 4 -6 -2 4 -6 0 -16 -8 -23 -8 -7 -15 -9 -15 -4 0 5 -4 2
-10 -6 -7 -12 -12 -11 -30 5 -16 15 -23 16 -29 7 -4 -7 -15 -10 -24 -6 -13 4
-17 1 -17 -15 0 -26 -25 -38 -44 -22 -23 19 -33 -45 -11 -69 11 -12 13 -20 6
-25 -6 -3 -12 -4 -12 -1 -1 3 -3 11 -4 16 -1 6 -3 13 -4 18 -1 4 -10 -9 -21
-28 -21 -39 -27 -36 -8 5 9 19 9 28 0 37 -17 17 -15 29 3 22 9 -4 16 3 21 20
6 27 -2 50 -16 41 -5 -3 -19 -1 -30 5 -25 14 -54 67 -40 75 6 4 7 12 3 18 -4
7 -9 21 -10 31 -6 36 -10 28 -11 -19 -1 -25 -4 -50 -7 -55 -3 -4 -1 -10 5 -12
22 -7 -21 -48 -51 -48 -24 0 -29 -4 -29 -24 0 -13 7 -26 15 -30 9 -3 15 0 15
9 0 10 10 15 30 15 37 0 56 -36 39 -74 -13 -27 -68 -43 -95 -28 -12 6 -8 9 15
9 51 0 74 31 49 66 -12 16 -15 15 -40 -8 -26 -24 -28 -24 -38 -6 -5 11 -10 36
-10 55 0 34 2 36 35 36 19 0 35 4 35 9 0 5 2 15 5 23 3 7 -13 33 -35 58 -22
24 -59 82 -82 128 -24 46 -50 91 -58 100 -20 23 -42 72 -31 72 4 0 16 -18 26
-40 21 -48 72 -103 85 -95 6 4 10 -4 10 -17 1 -21 2 -21 11 -5 9 15 13 16 26
5 14 -11 15 -11 6 7 -12 22 -12 133 0 152 4 6 3 13 -3 15 -6 2 0 14 13 28 26
28 18 49 -15 42 -25 -5 -23 14 2 21 12 3 20 14 20 26 0 12 3 20 8 19 12 -4 52
26 52 38 0 6 10 11 22 10 13 0 23 4 23 11 0 18 55 74 65 68 6 -4 10 1 10 10 0
9 3 14 8 12 4 -2 21 4 37 14 96 58 256 115 291 103 14 -4 16 -3 5 4 -11 8 -11
10 0 14 9 3 6 9 -11 18 -23 12 -24 12 -11 -3 12 -15 11 -17 -3 -17 -9 0 -16 8
-16 20 0 11 5 20 11 20 5 0 7 5 4 10 -3 6 -1 10 4 10 6 0 11 7 11 15 0 8 -8
15 -17 15 -13 0 -15 2 -5 8 22 15 3 44 -24 38 -33 -9 -30 2 4 15 24 9 25 11 9
20 -9 6 -26 8 -36 4 -15 -4 -17 -1 -14 18 6 30 -31 34 -51 6 -13 -19 -14 -19
-20 -2 -4 9 -4 14 0 10 9 -9 35 13 28 24 -3 5 1 6 9 3 18 -7 39 19 31 40 -4
12 -10 14 -19 6 -8 -6 -20 -6 -39 3 -21 9 -26 17 -22 37 4 22 3 23 -9 7 -15
-21 -22 -13 -21 23 1 14 -3 31 -9 39 -22 30 -89 90 -96 85 -4 -2 -12 3 -17 12
-7 12 -11 13 -16 5 -11 -17 14 -44 29 -31 21 17 24 0 7 -39 -14 -32 -21 -38
-44 -37 l-29 1 33 28 c28 23 29 27 11 22 -19 -5 -23 -2 -23 16 l0 22 -19 -22
-19 -21 -23 20 c-23 20 -23 21 -3 15 25 -6 47 15 38 38 -3 8 -19 21 -35 27
-16 7 -26 16 -23 21 3 5 2 9 -3 8 -4 -1 -16 -1 -27 0 -16 1 -17 3 -5 19 13 15
12 16 -3 4 -14 -11 -22 -11 -48 3 -18 9 -51 18 -74 20 -57 4 -136 25 -136 37
0 5 4 7 9 4 5 -4 20 -2 33 3 22 9 21 10 -9 10 -17 1 -43 5 -57 11 -16 6 -27 6
-31 0 -4 -6 -2 -10 4 -10 7 0 7 -8 1 -25 -6 -15 -6 -27 0 -30 5 -3 7 -12 3
-21 -8 -21 -80 -16 -74 6 2 8 4 25 4 37 -1 15 6 23 20 25 11 2 22 9 25 16 3
10 -10 13 -54 10 -33 -1 -67 -4 -77 -6z m56 -14 c-2 -5 -13 -8 -24 -8 -10 0
-19 3 -19 8 0 4 11 7 24 7 13 0 22 -3 19 -7z m-77 -43 c-3 -8 -1 -15 4 -15 6
0 10 -5 10 -11 0 -8 -5 -8 -15 1 -8 7 -13 16 -10 20 3 5 -1 11 -7 13 -8 3 -5
6 6 6 12 1 16 -4 12 -14z m-37 -4 c11 -7 10 -11 -7 -20 -28 -15 -37 -14 -23 2
6 8 8 17 4 20 -9 10 10 8 26 -2z m-84 -23 c-2 -13 -7 -22 -13 -21 -6 2 -22 -1
-35 -6 -18 -7 -24 -6 -24 4 0 8 4 12 9 9 4 -3 16 0 25 5 10 6 14 11 8 11 -5 1
-1 5 10 10 11 5 20 9 21 9 0 1 0 -9 -1 -21z m31 -25 c-11 -11 -19 6 -11 24 8
17 8 17 12 0 3 -10 2 -21 -1 -24z m134 -7 c0 -3 -4 -8 -10 -11 -5 -3 -10 -1
-10 4 0 6 5 11 10 11 6 0 10 -2 10 -4z m225 -16 c-3 -5 -10 -10 -16 -10 -5 0
-9 5 -9 10 0 6 7 10 16 10 8 0 12 -4 9 -10z m-155 -102 c5 -56 3 -68 -8 -63
-10 4 -12 0 -8 -11 6 -15 4 -15 -11 -3 -30 23 -33 33 -17 46 21 16 15 68 -8
67 -14 -1 -14 3 5 32 19 28 23 30 31 16 5 -9 12 -47 16 -84z m86 93 c-3 -5 1
-11 9 -14 10 -4 12 -1 8 11 -6 15 -5 15 10 3 21 -17 22 -60 2 -87 -13 -18 -14
-18 -9 6 5 24 5 24 -25 -8 -17 -18 -31 -36 -31 -41 0 -10 48 -2 56 10 11 18
19 8 19 -21 0 -23 -4 -29 -15 -24 -8 3 -30 8 -47 11 -41 7 -41 21 -3 58 38 37
41 76 5 73 -26 -2 -34 -23 -12 -31 6 -2 9 -8 5 -12 -10 -10 -38 13 -38 31 0 7
10 20 22 28 24 17 53 22 44 7z m-316 -5 c0 -11 -19 -15 -25 -6 -3 5 1 10 9 10
9 0 16 -2 16 -4z m473 -11 c-3 -9 -8 -14 -10 -11 -3 3 -2 9 2 15 9 16 15 13 8
-4z m92 -35 c-3 -5 -10 -10 -16 -10 -5 0 -9 5 -9 10 0 6 7 10 16 10 8 0 12 -4
9 -10z m-630 -75 c19 -30 40 -55 47 -55 16 -1 -21 -30 -38 -30 -7 0 -10 8 -7
18 2 10 -7 34 -21 55 -23 34 -34 67 -21 67 2 0 20 -25 40 -55z m695 35 c0 -5
-5 -10 -11 -10 -5 0 -7 5 -4 10 3 6 8 10 11 10 2 0 4 -4 4 -10z m-960 -22 c0
-19 -2 -20 -10 -8 -10 16 -14 8 -11 -22 1 -10 -2 -18 -7 -18 -13 0 -8 36 7 54
18 21 21 20 21 -6z m28 -13 c-1 -13 -6 -21 -10 -17 -5 5 -6 16 -2 25 9 24 14
21 12 -8z m152 0 c5 -13 21 -43 36 -66 21 -33 23 -43 12 -50 -24 -15 -40 -10
-33 11 8 25 -24 77 -36 58 -5 -8 -8 4 -6 29 2 48 13 55 27 18z m733 -81 c4 -4
7 4 7 19 0 14 5 29 11 33 8 5 9 -6 4 -37 -4 -24 -11 -45 -16 -47 -5 -2 -9 -10
-9 -17 0 -7 -4 -15 -8 -17 -9 -3 -76 -135 -78 -153 -1 -5 -2 -20 -3 -32 -1
-28 -31 -31 -31 -4 0 11 5 23 10 26 6 3 10 22 10 42 0 20 9 46 20 60 11 14 20
31 20 39 0 7 4 14 9 16 5 2 12 19 16 38 7 31 6 33 -9 21 -9 -7 -16 -19 -16
-25 0 -7 -15 -38 -34 -69 -19 -31 -29 -58 -24 -59 6 -2 8 -13 4 -26 -5 -15
-15 -22 -32 -22 -21 0 -23 -2 -12 -14 7 -8 16 -12 19 -10 7 4 19 -108 13 -115
-1 -2 -9 19 -18 45 -8 27 -15 40 -16 29 l-1 -20 -9 20 c-8 19 -9 19 -9 -3 -1
-12 6 -25 14 -28 11 -5 15 -20 14 -58 -1 -44 -2 -47 -9 -21 l-8 30 -1 -31 c0
-16 4 -35 9 -40 12 -12 -3 -64 -19 -64 -10 0 -20 33 -22 75 -1 29 -1 30 -9 5
-7 -21 -8 -22 -10 -5 -1 12 -4 15 -7 7 -3 -7 5 -30 16 -53 12 -22 20 -52 20
-67 -1 -17 -3 -20 -6 -9 -2 9 -9 14 -15 11 -7 -5 -9 0 -6 14 4 12 2 19 -3 16
-5 -3 -6 -34 -3 -70 6 -72 -2 -116 -17 -93 -8 12 -12 11 -23 -3 -16 -22 -26
-23 -26 -2 0 14 -1 14 -16 0 -16 -17 -94 -22 -94 -7 0 5 5 11 11 13 15 5 -32
77 -51 78 -9 0 -16 9 -17 21 -2 17 3 20 21 17 15 -3 27 2 35 14 14 23 14 29
-1 27 -28 -3 -38 2 -38 20 0 11 5 23 11 27 8 4 8 9 -1 18 -8 8 -13 7 -21 -4
-7 -11 -8 -4 -3 23 5 30 3 37 -10 37 -11 0 -16 9 -16 30 0 24 -4 30 -17 28
-10 -2 -17 2 -16 7 1 6 4 24 8 40 5 23 4 26 -4 15 -7 -10 -11 -11 -11 -2 0 6
-7 12 -15 12 -11 0 -14 7 -9 24 5 22 2 26 -27 34 -30 7 -35 13 -45 58 -6 27
-16 59 -22 71 -20 36 -14 45 17 24 15 -11 32 -17 36 -13 5 4 5 2 1 -5 -4 -7 2
-21 13 -32 13 -13 21 -16 25 -8 2 7 5 -4 5 -23 1 -25 4 -31 10 -21 7 11 12 3
22 -27 7 -23 18 -47 26 -53 7 -6 13 -20 13 -30 0 -11 4 -19 9 -19 5 0 11 -14
15 -31 3 -17 17 -40 31 -51 24 -18 36 -46 15 -33 -5 3 -10 2 -10 -3 0 -6 7
-13 16 -16 12 -5 15 -14 10 -36 -3 -18 -1 -30 5 -30 14 0 39 -26 39 -39 0 -6
7 -11 15 -11 10 0 15 10 15 26 0 22 4 25 21 21 16 -4 19 -2 14 11 -16 39 -17
52 -3 52 8 0 20 -6 27 -12 10 -11 10 -8 2 15 -15 40 -14 47 11 47 17 0 19 3
10 12 -7 7 -12 20 -12 31 0 14 5 17 20 12 20 -6 28 9 10 20 -5 3 -10 18 -10
33 0 16 3 22 8 15 5 -8 12 -9 22 -2 13 8 13 11 -2 23 -20 15 -6 36 24 36 21 0
22 4 8 31 -9 15 -7 19 7 19 21 0 83 112 83 150 0 13 12 37 28 53 l27 28 5 -45
c3 -25 9 -48 13 -52z m-803 72 c0 -3 -4 -8 -10 -11 -5 -3 -10 -1 -10 4 0 6 5
11 10 11 6 0 10 -2 10 -4z m-160 -33 c0 -21 -3 -24 -9 -14 -5 8 -7 20 -4 28 8
21 13 15 13 -14z m1048 -25 c-11 -24 -27 -51 -35 -60 -9 -10 -12 -25 -8 -37 9
-28 -1 -26 -20 3 -15 23 -15 27 15 68 17 23 26 44 21 46 -19 6 -1 22 24 22
l23 0 -20 -42z m105 -15 c3 -5 -1 -13 -8 -20 -10 -10 -16 -9 -27 4 -9 12 -9
15 0 9 6 -4 12 -2 12 3 0 13 17 15 23 4z m-1199 -19 c3 -8 2 -12 -4 -9 -6 3
-10 10 -10 16 0 14 7 11 14 -7z m91 -14 c-3 -5 -11 -10 -16 -10 -6 0 -7 5 -4
10 3 6 11 10 16 10 6 0 7 -4 4 -10z m-148 -65 c-18 -13 -18 -14 0 -23 10 -5
24 -7 31 -5 10 4 9 -3 -3 -27 l-17 -33 -11 23 c-14 27 -44 42 -34 17 3 -9 2
-19 -4 -23 -6 -3 -13 3 -16 15 -3 11 -10 18 -15 15 -6 -4 -5 3 1 15 12 22 27
30 16 9 -3 -7 6 2 21 20 20 24 30 30 38 22 8 -8 6 -15 -7 -25z m268 -43 c-17
-15 -18 -15 -6 0 7 9 9 23 5 30 -6 10 -4 11 7 0 11 -10 10 -15 -6 -30z m-67 2
c30 -21 30 -71 -1 -85 -46 -21 -117 34 -102 81 8 25 69 28 103 4z m1152 12 c0
-11 -19 -15 -25 -6 -3 5 1 10 9 10 9 0 16 -2 16 -4z m-1280 -46 c0 -5 -2 -10
-4 -10 -3 0 -8 5 -11 10 -3 6 -1 10 4 10 6 0 11 -4 11 -10z m1412 -47 c14 -3
28 -14 31 -24 3 -11 1 -17 -3 -14 -4 3 -18 -10 -30 -28 l-21 -32 5 35 c6 37
-5 67 -22 56 -5 -3 -13 1 -16 10 -5 12 -2 15 11 9 10 -3 30 -9 45 -12z m-1374
-35 c28 -17 38 -19 53 -10 21 13 32 3 19 -18 -4 -7 -6 -18 -4 -24 3 -7 -5 -12
-16 -13 -12 -1 -20 4 -20 13 0 8 -15 21 -32 29 -29 12 -34 12 -40 -3 -4 -11
-7 -6 -7 16 -1 38 1 38 47 10z m1281 -4 c18 -15 31 -20 31 -13 0 7 2 10 5 7 6
-6 -25 -71 -38 -80 -14 -9 -57 9 -84 34 -19 18 -23 19 -23 6 0 -28 11 -48 27
-48 8 0 13 -7 11 -17 -2 -10 -12 -18 -23 -18 -23 0 -31 36 -20 91 l6 33 45
-31 c49 -33 68 -29 62 13 -2 18 -9 24 -27 24 -13 0 -26 6 -28 13 -8 21 24 13
56 -14z m-1359 -4 c0 -5 -5 -10 -11 -10 -5 0 -7 5 -4 10 3 6 8 10 11 10 2 0 4
-4 4 -10z m97 -72 c-3 -8 -6 -5 -6 6 -1 11 2 17 5 13 3 -3 4 -12 1 -19z m853
6 c0 -8 -4 -12 -10 -9 -5 3 -10 10 -10 16 0 5 5 9 10 9 6 0 10 -7 10 -16z
m-980 -18 c0 -3 -4 -8 -10 -11 -5 -3 -10 -1 -10 4 0 6 5 11 10 11 6 0 10 -2
10 -4z m97 -48 c-3 -8 -6 -5 -6 6 -1 11 2 17 5 13 3 -3 4 -12 1 -19z m-117
-22 c0 -3 -4 -8 -10 -11 -5 -3 -10 -1 -10 4 0 6 5 11 10 11 6 0 10 -2 10 -4z
m147 -38 c-3 -8 -6 -5 -6 6 -1 11 2 17 5 13 3 -3 4 -12 1 -19z m440 -15 c-3
-10 -5 -4 -5 12 0 17 2 24 5 18 2 -7 2 -21 0 -30z m-469 2 c-3 -3 -9 2 -12 12
-6 14 -5 15 5 6 7 -7 10 -15 7 -18z m947 5 c3 -5 1 -10 -4 -10 -6 0 -11 5 -11
10 0 6 2 10 4 10 3 0 8 -4 11 -10z m-915 -14 c0 -3 -4 -8 -10 -11 -5 -3 -10
-1 -10 4 0 6 5 11 10 11 6 0 10 -2 10 -4z m477 -28 c-3 -8 -6 -5 -6 6 -1 11 2
17 5 13 3 -3 4 -12 1 -19z m437 -34 c3 -8 2 -12 -4 -9 -6 3 -10 10 -10 16 0
14 7 11 14 -7z m-952 -17 c37 -25 41 -43 16 -72 -28 -33 -45 -32 -23 1 20 30
14 54 -15 54 -15 0 -20 -7 -20 -28 0 -20 -7 -32 -23 -39 -30 -14 -77 -6 -70
12 2 8 -5 20 -16 27 -26 16 -27 31 -2 23 16 -5 36 16 33 35 -2 14 96 3 120
-13z m768 -32 c0 -5 -5 -3 -10 5 -5 8 -10 20 -10 25 0 6 5 3 10 -5 5 -8 10
-19 10 -25z m-224 -18 c4 -4 2 -7 -4 -7 -7 0 -12 -7 -12 -15 0 -18 -16 -20
-26 -3 -4 6 -2 14 4 16 7 2 10 7 7 12 -6 10 21 7 31 -3z m-69 -29 c-3 -8 -6
-5 -6 6 -1 11 2 17 5 13 3 -3 4 -12 1 -19z m77 -4 c3 -8 2 -12 -4 -9 -6 3 -10
10 -10 16 0 14 7 11 14 -7z m343 -36 c-3 -7 -5 -2 -5 12 0 14 2 19 5 13 2 -7
2 -19 0 -25z m-354 15 c3 -5 1 -17 -4 -28 -7 -18 -8 -18 -9 5 -1 25 -1 24 -15
-5 -7 -16 -14 -24 -14 -17 -2 31 30 65 42 45z m-290 -10 c-7 -2 -19 -2 -25 0
-7 3 -2 5 12 5 14 0 19 -2 13 -5z m-288 -20 c17 -3 50 -16 75 -28 25 -12 61
-26 80 -30 19 -4 61 -20 93 -36 31 -15 57 -26 57 -23 0 3 7 -2 16 -11 9 -9 22
-14 30 -11 7 3 14 1 16 -4 2 -4 12 -10 23 -12 11 -1 26 -9 33 -15 7 -7 20 -13
28 -13 8 0 14 -8 14 -17 0 -14 -2 -15 -9 -5 -4 7 -14 14 -22 16 -8 1 -24 7
-36 14 -12 7 -29 12 -38 12 -9 0 -23 7 -32 15 -8 9 -20 14 -27 12 -6 -2 -15 2
-21 9 -5 7 -71 34 -145 60 -159 56 -200 72 -200 80 0 3 8 3 18 -1 9 -3 31 -9
47 -12z m700 -3 c-3 -5 -12 -10 -18 -10 -7 0 -6 4 3 10 19 12 23 12 15 0z
m-790 -20 c3 -5 1 -10 -4 -10 -6 0 -11 5 -11 10 0 6 2 10 4 10 3 0 8 -4 11
-10z m642 -25 c0 -8 -4 -12 -9 -9 -4 3 -8 9 -8 15 0 5 4 9 8 9 5 0 9 -7 9 -15z
m-617 -65 c0 -5 -4 -10 -10 -10 -5 0 -10 5 -10 10 0 6 5 10 10 10 6 0 10 -4
10 -10z m660 -9 c0 -5 -7 -12 -16 -15 -14 -5 -15 -4 -4 9 14 17 20 19 20 6z
m-630 -72 c0 -11 -4 -18 -10 -14 -5 3 -7 12 -3 20 7 21 13 19 13 -6z m206 -40
c22 -44 12 -73 -26 -76 -20 -2 -42 -13 -60 -33 -33 -36 -44 -37 -64 -8 -28 39
-18 98 16 98 11 0 33 11 50 25 40 34 64 32 84 -6z m314 -88 c0 -6 -4 -13 -10
-16 -5 -3 -10 1 -10 9 0 9 5 16 10 16 6 0 10 -4 10 -9z m-481 -18 c0 -5 -4
-17 -9 -28 -8 -18 -9 -17 -9 8 -1 15 4 27 9 27 6 0 10 -3 9 -7z m478 -45 c-3
-8 -6 -5 -6 6 -1 11 2 17 5 13 3 -3 4 -12 1 -19z m478 -8 c-3 -5 -12 -10 -18
-10 -7 0 -6 4 3 10 19 12 23 12 15 0z m-45 -46 c8 -8 10 -14 4 -14 -6 0 -14 3
-18 8 -8 8 -13 9 -53 11 -22 1 -25 3 -13 11 18 11 59 3 80 -16z m-566 -7 c12
-13 30 -28 40 -34 11 -6 16 -15 12 -22 -5 -8 -19 -5 -46 9 -21 11 -46 17 -54
14 -20 -8 -20 0 0 31 20 31 21 31 48 2z m-294 -1 c0 -2 -8 -10 -17 -17 -16
-13 -17 -12 -4 4 13 16 21 21 21 13z m553 -53 c-3 -7 -9 -10 -14 -7 -14 8 -11
21 5 21 8 0 12 -6 9 -14z m-453 -34 c0 -11 -4 -17 -10 -14 -5 3 -10 13 -10 21
0 8 5 14 10 14 6 0 10 -9 10 -21z m1096 -23 c2 -17 -21 -15 -39 3 -9 10 -9 12
3 9 9 -2 14 3 12 12 -3 12 -1 12 9 3 7 -7 14 -19 15 -27z m-40 -31 c-4 -25
-14 -27 -26 -6 -14 26 -4 47 15 31 7 -6 12 -17 11 -25z m-530 4 c3 -5 -4 -9
-15 -9 -33 0 -33 -18 -1 -47 17 -15 28 -33 26 -40 -7 -17 4 -16 28 2 11 8 25
15 30 15 6 0 -15 -16 -47 -35 -32 -19 -63 -33 -68 -30 -5 4 -9 0 -9 -7 0 -7
-6 -4 -12 7 -7 11 -18 26 -25 33 -7 7 -13 22 -13 32 0 24 21 70 32 70 4 0 8 6
8 13 0 15 56 11 66 -4z m-486 1 c0 -5 -4 -10 -10 -10 -5 0 -10 5 -10 10 0 6 5
10 10 10 6 0 10 -4 10 -10z m136 -97 c-11 -11 -19 6 -11 24 8 17 8 17 12 0 3
-10 2 -21 -1 -24z m121 -15 c-3 -7 -5 -2 -5 12 0 14 2 19 5 13 2 -7 2 -19 0
-25z"/>
<path d="M3240 3611 c0 -6 4 -13 10 -16 6 -3 7 1 4 9 -7 18 -14 21 -14 7z"/>
<path d="M3645 3430 c-4 -6 -11 -8 -16 -5 -5 4 -9 1 -9 -4 0 -6 5 -11 10 -11
6 0 10 -17 10 -37 0 -21 4 -43 8 -50 4 -6 7 18 8 53 0 66 0 71 -11 54z"/>
<path d="M3422 3300 c0 -14 2 -19 5 -12 2 6 2 18 0 25 -3 6 -5 1 -5 -13z"/>
<path d="M3585 3280 c3 -5 8 -10 11 -10 2 0 4 5 4 10 0 6 -5 10 -11 10 -5 0
-7 -4 -4 -10z"/>
<path d="M3556 3253 c-3 -4 -6 -19 -6 -35 0 -26 2 -27 20 -16 11 7 20 20 20
29 0 17 -24 32 -34 22z"/>
<path d="M3466 3214 c-9 -8 -16 -23 -16 -32 0 -15 -2 -15 -10 -2 -9 13 -10 13
-10 -1 0 -24 38 -59 65 -59 43 0 60 63 27 93 -23 21 -36 21 -56 1z m44 -39 c0
-8 -4 -17 -10 -20 -5 -3 -10 -2 -10 4 0 5 -3 17 -6 25 -5 12 -2 15 10 10 9 -3
16 -12 16 -19z"/>
<path d="M3460 3099 c0 -5 5 -7 10 -4 6 3 10 8 10 11 0 2 -4 4 -10 4 -5 0 -10
-5 -10 -11z"/>
<path d="M2880 3613 c0 -25 26 -49 63 -58 20 -5 27 -4 27 8 0 23 -32 55 -62
63 -23 5 -28 3 -28 -13z"/>
<path d="M4245 3520 c3 -5 8 -10 11 -10 2 0 4 5 4 10 0 6 -5 10 -11 10 -5 0
-7 -4 -4 -10z"/>
<path d="M2758 3193 c-21 -5 -23 -24 -6 -41 19 -19 45 -14 51 10 10 35 -1 43
-45 31z"/>
<path d="M2941 2811 c-15 -27 -14 -31 8 -31 24 0 34 25 16 40 -11 9 -16 7 -24
-9z"/>
<path d="M2857 2793 c-12 -11 -7 -41 7 -46 19 -7 26 1 26 30 0 22 -19 31 -33
16z"/>
<path d="M3433 2441 c3 -11 1 -23 -4 -27 -12 -7 20 -54 38 -54 10 0 13 7 9 23
-3 12 -3 16 0 10 7 -16 24 -17 24 -3 0 6 -11 15 -25 20 -16 6 -25 16 -23 26 2
9 -3 19 -11 22 -10 3 -12 -1 -8 -17z"/>
<path d="M3668 4083 c7 -3 16 -2 19 1 4 3 -2 6 -13 5 -11 0 -14 -3 -6 -6z"/>
<path d="M3500 4070 c0 -5 7 -10 16 -10 8 0 12 5 9 10 -3 6 -10 10 -16 10 -5
0 -9 -4 -9 -10z"/>
<path d="M2553 4045 c0 -7 6 -11 14 -8 7 3 13 6 13 8 0 2 -6 5 -13 8 -8 3 -14
-1 -14 -8z"/>
<path d="M3495 4040 c3 -5 11 -10 16 -10 6 0 7 5 4 10 -3 6 -11 10 -16 10 -6
0 -7 -4 -4 -10z"/>
<path d="M2584 4014 c6 -15 4 -15 -11 -3 -9 8 -14 9 -10 3 4 -7 -2 -14 -14
-17 -12 -3 -18 -10 -15 -16 9 -13 66 17 66 35 0 8 -5 14 -11 14 -6 0 -8 -7 -5
-16z"/>
<path d="M4312 3964 c10 -10 20 -15 24 -12 3 4 -5 12 -18 18 -22 12 -22 12 -6
-6z"/>
<path d="M4140 3934 c-14 -7 -21 -14 -16 -14 5 0 3 -7 -4 -16 -11 -12 -11 -15
0 -12 8 2 14 -3 15 -9 0 -19 55 -74 66 -67 5 3 9 0 9 -5 0 -6 6 -11 14 -11 17
0 30 35 20 51 -4 8 -3 9 4 5 7 -4 12 -1 12 6 0 9 13 13 39 13 22 0 38 -2 36
-5 -2 -3 3 -13 10 -23 11 -15 14 -15 24 -3 8 10 9 16 1 21 -6 3 -7 12 -4 18 4
7 3 9 -1 4 -5 -4 -21 5 -36 19 -22 21 -31 25 -42 16 -8 -7 -17 -9 -20 -6 -9 9
-56 -48 -57 -68 0 -25 -16 -30 -31 -11 -8 10 -9 14 -2 10 14 -9 18 -2 28 40 5
27 4 32 -8 27 -8 -3 -18 -16 -21 -30 -7 -25 -20 -31 -31 -14 -3 6 1 10 9 10 8
0 14 8 14 18 0 9 3 25 7 35 8 20 0 20 -35 1z"/>
<path d="M4465 3879 c-4 -6 -5 -12 -2 -15 2 -3 7 2 10 11 7 17 1 20 -8 4z"/>
<path d="M4366 3827 c-14 -14 -26 -31 -26 -36 0 -6 -10 -16 -22 -22 -17 -9
-24 -9 -33 5 -15 20 -55 21 -55 2 0 -7 7 -19 15 -26 9 -7 30 -43 48 -79 18
-36 41 -78 51 -93 10 -16 16 -34 13 -42 -4 -11 -1 -13 11 -9 14 5 15 3 5 -8
-7 -7 -13 -20 -12 -29 0 -10 2 -11 6 -2 2 6 9 12 14 12 6 0 6 -8 -1 -19 -15
-28 -12 -35 7 -20 14 12 16 12 11 -1 -3 -8 -2 -22 3 -30 4 -9 11 -74 14 -145
4 -72 9 -133 12 -137 2 -5 1 -14 -4 -20 -13 -20 -33 -81 -33 -100 0 -29 18
-21 23 10 2 15 5 3 6 -28 2 -30 5 -49 8 -42 2 6 16 12 30 12 l25 0 -23 19
c-29 24 -18 39 15 22 27 -15 79 -5 55 10 -8 5 -24 9 -37 9 -13 0 -20 4 -17 10
3 6 -1 10 -9 10 -11 0 -16 9 -16 30 0 26 4 30 37 36 31 6 39 3 55 -16 10 -13
16 -30 13 -37 -3 -8 -5 -25 -5 -38 0 -16 -8 -26 -22 -31 l-23 -8 25 -7 25 -7
-27 -1 c-17 -1 -28 -7 -28 -15 0 -8 -3 -21 -6 -30 -3 -9 -1 -16 5 -16 6 0 10
3 10 8 -3 20 2 32 16 32 18 0 20 -30 3 -31 -7 0 -4 -4 7 -9 19 -8 19 -9 -3 -9
-14 -1 -20 -5 -17 -12 4 -6 13 -8 21 -5 8 3 14 0 14 -8 0 -8 -10 -11 -30 -8
-23 3 -30 0 -30 -12 0 -9 8 -16 19 -16 14 0 18 -5 14 -19 -3 -10 0 -22 6 -25
6 -4 11 1 11 11 0 11 5 24 10 29 6 6 11 33 13 60 1 27 5 51 8 54 4 3 10 35 13
73 7 61 6 67 -11 68 -15 0 -15 2 3 9 15 6 23 19 26 44 2 21 0 36 -7 36 -6 0
-5 4 2 8 14 9 5 26 -17 35 -12 4 -11 6 3 6 16 1 18 7 12 53 -4 28 -11 63 -17
77 -5 14 -11 38 -12 54 -3 40 -18 50 -50 36 -19 -9 -23 -15 -14 -21 9 -5 7 -8
-7 -8 -11 0 -31 -7 -43 -16 -12 -8 -22 -11 -22 -5 0 6 9 15 20 21 13 7 19 19
17 40 -2 24 -6 29 -22 24 -15 -4 -14 -1 5 10 34 21 43 20 30 -3 -13 -25 -4
-30 38 -24 22 4 32 11 32 23 0 10 3 27 6 37 4 13 3 14 -3 5 -7 -9 -16 -10 -34
-3 -16 6 -18 10 -7 10 17 1 15 34 -5 59 -6 8 -6 12 2 12 6 0 11 -5 11 -12 0
-6 3 -9 6 -5 4 3 -5 27 -20 53 -14 25 -26 54 -26 63 0 9 -18 32 -40 51 -27 24
-36 36 -27 42 9 5 8 11 -5 24 -15 15 -18 15 -42 -9z m36 -59 c-22 -22 -12 -31
15 -13 23 16 25 16 20 1 -4 -9 -1 -16 6 -17 7 0 0 -5 -15 -11 -16 -5 -28 -14
-28 -19 0 -12 7 -11 32 2 15 8 19 8 14 0 -4 -6 -2 -11 5 -11 15 0 2 -15 -14
-15 -34 -2 -66 -19 -76 -41 -6 -13 -15 -24 -21 -24 -17 0 -11 17 18 52 l27 33
-27 -18 c-31 -20 -38 -21 -38 -7 0 5 12 16 28 24 15 8 21 15 14 16 -7 0 -22
-5 -32 -10 -19 -10 -32 0 -37 29 -1 10 1 11 9 3 8 -8 20 -6 42 6 17 9 33 20
34 25 2 4 11 7 20 7 12 0 13 -3 4 -12z m32 -133 c-4 -8 -12 -15 -20 -15 -16 0
-18 -9 -6 -27 4 -7 13 -9 21 -4 7 5 11 14 7 19 -4 6 2 16 13 21 27 15 28 14
33 -14 3 -13 2 -22 -2 -20 -4 3 -13 -9 -20 -25 -12 -28 -45 -49 -57 -36 -4 3
-1 6 5 6 22 0 12 27 -13 38 -44 20 -23 68 32 71 7 1 10 -6 7 -14z m21 -185
c-3 -5 -13 -10 -21 -10 -8 0 -12 5 -9 10 3 6 13 10 21 10 8 0 12 -4 9 -10z
m90 -70 c-3 -5 2 -11 12 -11 17 -1 17 -2 1 -6 -12 -3 -18 -14 -18 -34 0 -58
-91 -60 -97 -2 -4 33 9 49 47 56 45 8 61 7 55 -3z m30 -70 c3 -5 1 -10 -4 -10
-6 0 -11 5 -11 10 0 6 2 10 4 10 3 0 8 -4 11 -10z m-8 -36 c-3 -3 -12 -4 -19
-1 -8 3 -5 6 6 6 11 1 17 -2 13 -5z m-64 -30 c9 1 20 5 23 9 4 4 14 7 21 7 12
0 12 -3 -1 -15 -8 -8 -19 -15 -24 -15 -5 0 -9 -7 -9 -15 0 -10 7 -13 23 -9 12
3 24 1 28 -4 3 -5 -9 -13 -27 -16 l-32 -7 30 -14 30 -13 -40 -1 c-22 -1 -51
-4 -65 -7 l-25 -5 23 17 c29 22 28 34 -4 34 -16 0 -23 4 -18 11 3 6 17 9 30 6
27 -5 31 5 9 27 -18 18 -20 33 -2 18 7 -6 20 -10 30 -8z m-71 -159 c3 -13 1
-22 -3 -19 -9 5 -13 44 -5 44 2 0 6 -11 8 -25z"/>
<path d="M4141 3797 c-13 -21 -12 -21 5 -5 10 10 16 20 13 22 -3 3 -11 -5 -18
-17z"/>
<path d="M4280 3816 c0 -9 30 -14 35 -6 4 6 -3 10 -14 10 -12 0 -21 -2 -21 -4z"/>
<path d="M4461 3783 c7 -12 15 -20 18 -17 3 2 -3 12 -13 22 -17 16 -18 16 -5
-5z"/>
<path d="M4185 3750 c-3 -5 -2 -10 4 -10 5 0 13 5 16 10 3 6 2 10 -4 10 -5 0
-13 -4 -16 -10z"/>
<path d="M2678 3682 c-52 -78 -88 -162 -69 -162 6 0 13 12 17 28 3 15 24 60
45 100 21 39 37 72 35 72 -2 0 -15 -17 -28 -38z"/>
<path d="M2420 3675 c0 -8 2 -15 4 -15 2 0 6 7 10 15 3 8 1 15 -4 15 -6 0 -10
-7 -10 -15z"/>
<path d="M4325 3480 c3 -5 8 -10 11 -10 2 0 4 5 4 10 0 6 -5 10 -11 10 -5 0
-7 -4 -4 -10z"/>
<path d="M2575 3461 c-3 -5 -1 -12 5 -16 5 -3 10 1 10 9 0 18 -6 21 -15 7z"/>
<path d="M4376 3425 c4 -8 8 -15 10 -15 2 0 4 7 4 15 0 8 -4 15 -10 15 -5 0
-7 -7 -4 -15z"/>
<path d="M2556 3388 c-15 -95 -17 -128 -7 -128 16 0 23 39 17 85 -4 26 -3 46
4 50 13 8 13 25 0 25 -5 0 -11 -15 -14 -32z"/>
<path d="M4316 3401 c-7 -11 4 -42 21 -59 7 -7 13 -21 12 -30 0 -14 -2 -13 -8
3 l-9 20 -4 -20 c-4 -16 -5 -16 -3 3 1 12 -1 22 -5 22 -4 0 -13 14 -20 30 -13
30 -42 40 -56 19 -3 -6 -17 -9 -30 -6 -13 2 -21 1 -19 -4 3 -4 1 -10 -5 -14
-5 -3 -10 -1 -10 6 0 9 -4 8 -12 -3 -7 -9 -25 -18 -40 -22 -15 -3 -33 -13 -42
-21 -8 -8 -19 -15 -23 -15 -5 0 -28 -16 -51 -36 -23 -19 -42 -33 -42 -29 0 19
-69 -68 -75 -95 -4 -20 -10 -28 -15 -20 -6 10 -18 -3 -25 -30 0 -3 -8 -18 -17
-35 -22 -43 -31 -152 -17 -211 6 -27 22 -63 35 -81 13 -17 24 -37 24 -43 0
-19 61 -71 91 -77 16 -3 29 -9 29 -14 0 -12 57 -11 79 0 10 6 26 28 36 50 17
38 17 42 1 66 -23 36 -34 32 -58 -22 l-21 -48 -13 44 c-17 59 -22 158 -6 136
4 -6 24 -21 45 -33 36 -21 37 -21 37 -2 0 24 9 25 36 5 19 -14 18 -14 -3 -15
-28 0 -29 -10 -4 -32 19 -16 20 -16 26 2 4 12 12 17 22 13 14 -5 13 -8 -3 -20
-19 -14 -19 -15 0 -28 16 -13 22 -12 44 6 14 10 32 17 41 14 9 -2 27 5 41 16
14 11 19 17 11 13 -8 -4 -24 -9 -35 -10 -72 -12 -86 -13 -81 -4 3 5 -2 13 -12
19 -17 9 -16 11 2 31 16 18 17 23 5 30 -8 5 -11 12 -7 17 5 4 12 2 16 -5 5 -9
18 -3 44 22 20 19 37 39 37 45 0 19 53 72 66 67 9 -3 14 2 14 14 0 11 -6 20
-14 20 -7 0 -19 7 -26 15 -9 11 -16 13 -24 5 -19 -19 -29 -10 -12 9 10 11 24
17 32 14 8 -3 14 1 14 10 0 10 -9 14 -30 13 -16 -1 -30 1 -30 6 0 4 14 8 30 8
22 0 30 5 30 18 0 14 2 15 10 2 8 -13 10 -12 10 3 0 9 -7 17 -15 17 -11 0 -15
10 -14 38 1 37 1 37 9 7 7 -27 8 -25 9 18 1 58 17 61 29 5 l9 -43 4 43 c3 23
1 42 -3 42 -5 0 -8 8 -8 18 0 9 -11 36 -24 59 -17 28 -20 43 -13 47 9 3 9 5 0
5 -6 1 -14 -3 -17 -8z m-56 -161 c0 -5 -4 -10 -10 -10 -5 0 -10 5 -10 10 0 6
5 10 10 10 6 0 10 -4 10 -10z m-142 -81 l27 -1 -25 -7 c-31 -9 -37 -36 -14
-62 13 -14 20 -16 31 -8 7 6 13 19 13 27 0 12 3 13 11 5 8 -8 6 -18 -7 -37
-22 -34 -52 -31 -75 9 -19 33 -24 59 -10 50 5 -3 12 -1 16 5 6 9 -8 14 -28 11
-5 -1 -5 3 -2 9 4 6 14 9 22 6 8 -3 27 -6 41 -7z m99 -56 c-3 20 0 27 13 27
25 0 29 -9 18 -41 -13 -36 -29 -37 -54 -1 -35 47 -37 58 -4 22 l31 -35 -4 28z
m-196 -76 c-10 -9 -11 -8 -5 6 3 10 9 15 12 12 3 -3 0 -11 -7 -18z m229 -21
c0 -3 -4 -8 -10 -11 -5 -3 -10 -1 -10 4 0 6 5 11 10 11 6 0 10 -2 10 -4z
m-207 -63 c-7 -2 -19 -2 -25 0 -7 3 -2 5 12 5 14 0 19 -2 13 -5z m177 -167 c0
-2 -8 -10 -17 -17 -16 -13 -17 -12 -4 4 13 16 21 21 21 13z"/>
<path d="M4695 3399 c-4 -6 -5 -12 -2 -15 2 -3 7 2 10 11 7 17 1 20 -8 4z"/>
<path d="M4700 3321 c0 -5 5 -13 10 -16 6 -3 10 -2 10 4 0 5 -4 13 -10 16 -5
3 -10 2 -10 -4z"/>
<path d="M2560 3113 c0 -15 2 -15 9 -4 7 11 10 10 14 -5 4 -16 5 -16 6 4 1 13
-5 22 -14 22 -8 0 -15 -8 -15 -17z"/>
<path d="M4356 3094 c-4 -14 -5 -28 -3 -31 3 -2 8 8 11 23 4 14 5 28 3 31 -3
2 -8 -8 -11 -23z"/>
<path d="M2337 3093 c-4 -3 -7 -13 -7 -22 1 -13 3 -13 11 2 11 19 8 33 -4 20z"/>
<path d="M2586 3051 c-4 -7 -5 -15 -2 -18 9 -9 19 4 14 18 -4 11 -6 11 -12 0z"/>
<path d="M4706 3035 c-9 -26 -7 -32 5 -12 6 10 9 21 6 23 -2 3 -7 -2 -11 -11z"/>
<path d="M2596 2985 c4 -8 8 -15 10 -15 2 0 4 7 4 15 0 8 -4 15 -10 15 -5 0
-7 -7 -4 -15z"/>
<path d="M4660 2991 c0 -5 5 -13 10 -16 6 -3 10 -2 10 4 0 5 -4 13 -10 16 -5
3 -10 2 -10 -4z"/>
<path d="M4368 2930 c-8 -33 -11 -60 -7 -60 5 0 11 16 15 35 3 19 10 38 15 41
12 7 12 44 0 44 -4 0 -15 -27 -23 -60z"/>
<path d="M4455 2960 c-3 -5 1 -10 10 -10 9 0 13 5 10 10 -3 6 -8 10 -10 10 -2
0 -7 -4 -10 -10z"/>
<path d="M4308 2953 c7 -3 16 -2 19 1 4 3 -2 6 -13 5 -11 0 -14 -3 -6 -6z"/>
<path d="M2607 2930 c3 -11 7 -20 9 -20 2 0 4 9 4 20 0 11 -4 20 -9 20 -5 0
-7 -9 -4 -20z"/>
<path d="M4415 2940 c-3 -5 1 -10 9 -10 9 0 16 5 16 10 0 6 -4 10 -9 10 -6 0
-13 -4 -16 -10z"/>
<path d="M4300 2936 c0 -2 7 -7 16 -10 8 -3 12 -2 9 4 -6 10 -25 14 -25 6z"/>
<path d="M4400 2909 c0 -9 7 -11 53 -13 15 -1 27 2 27 6 0 4 -10 8 -22 9 -13
0 -31 2 -40 4 -10 2 -18 -1 -18 -6z"/>
<path d="M4662 2890 c0 -14 2 -19 5 -12 2 6 2 18 0 25 -3 6 -5 1 -5 -13z"/>
<path d="M2615 2890 c-3 -5 -1 -10 4 -10 6 0 11 5 11 10 0 6 -2 10 -4 10 -3 0
-8 -4 -11 -10z"/>
<path d="M4387 2883 c-14 -23 -35 -116 -30 -130 4 -10 2 -14 -4 -10 -5 4 -23
-19 -39 -51 -16 -31 -43 -77 -60 -102 -49 -72 -51 -78 -28 -60 10 8 16 10 12
6 -10 -12 11 -38 24 -30 5 3 4 12 -3 20 -15 18 5 42 39 49 20 4 27 -5 23 -29
-1 -5 4 -5 11 1 7 6 20 9 29 8 9 -2 16 4 16 11 0 8 -4 14 -9 14 -4 0 -8 -4 -8
-8 0 -5 -7 -9 -15 -9 -14 0 -19 9 -16 33 1 6 -5 11 -13 11 -8 0 -12 -7 -9 -16
4 -14 4 -14 -6 -1 -9 12 -11 13 -11 1 0 -8 -2 -12 -5 -9 -3 3 7 25 23 49 16
24 37 63 47 86 13 29 21 39 27 30 6 -9 8 -9 8 1 0 7 -6 15 -14 18 -8 3 -12 12
-9 20 3 9 12 13 20 9 11 -4 14 0 9 12 -6 17 -5 17 8 0 12 -16 14 -16 20 -2 3
9 2 13 -3 10 -12 -7 -23 27 -16 48 7 15 -10 33 -18 20z"/>
<path d="M2627 2853 c-4 -3 -7 -11 -7 -17 0 -6 5 -5 12 2 6 6 9 14 7 17 -3 3
-9 2 -12 -2z"/>
<path d="M4665 2838 c-12 -37 -16 -83 -6 -73 9 10 24 95 17 95 -2 0 -7 -10
-11 -22z"/>
<path d="M3790 2816 c0 -9 5 -16 10 -16 6 0 10 4 10 9 0 6 -4 13 -10 16 -5 3
-10 -1 -10 -9z"/>
<path d="M3456 2811 c-7 -10 22 -37 30 -28 9 8 -3 37 -15 37 -5 0 -12 -4 -15
-9z"/>
<path d="M4031 2787 c5 -17 9 -34 9 -37 0 -9 20 25 20 35 0 6 -9 16 -19 22
-18 11 -19 10 -10 -20z"/>
<path d="M4565 2810 c-3 -5 -1 -10 4 -10 6 0 11 5 11 10 0 6 -2 10 -4 10 -3 0
-8 -4 -11 -10z"/>
<path d="M4456 2801 c-3 -5 1 -11 9 -14 9 -4 12 -1 8 9 -6 16 -10 17 -17 5z"/>
<path d="M4520 2781 c0 -7 -5 -9 -12 -5 -7 5 -8 3 -3 -5 5 -9 10 -10 18 -2 6
6 8 14 4 18 -4 3 -7 1 -7 -6z"/>
<path d="M4550 2780 c0 -5 5 -10 10 -10 6 0 10 5 10 10 0 6 -4 10 -10 10 -5 0
-10 -4 -10 -10z"/>
<path d="M3420 2776 c0 -2 8 -10 18 -17 15 -13 16 -12 3 4 -13 16 -21 21 -21
13z"/>
<path d="M3791 2744 c0 -11 3 -14 6 -6 3 7 2 16 -1 19 -3 4 -6 -2 -5 -13z"/>
<path d="M4223 2724 l-26 -26 24 -19 c22 -16 25 -16 33 -1 13 23 16 61 5 67
-5 4 -21 -6 -36 -21z"/>
<path d="M4671 2724 c0 -11 3 -14 6 -6 3 7 2 16 -1 19 -3 4 -6 -2 -5 -13z"/>
<path d="M4521 2706 c-8 -13 -11 -30 -9 -38 3 -8 11 -1 21 19 19 36 20 43 9
43 -5 0 -14 -11 -21 -24z"/>
<path d="M4691 2691 c-1 -27 2 -32 11 -23 8 8 8 17 0 34 -10 22 -11 21 -11
-11z"/>
<path d="M4183 2665 c3 -28 11 -38 32 -41 19 -3 19 10 0 26 -8 7 -13 16 -10
20 3 4 -2 11 -10 14 -12 4 -15 0 -12 -19z"/>
<path d="M4350 2681 c0 -5 5 -13 10 -16 6 -3 10 -2 10 4 0 5 -4 13 -10 16 -5
3 -10 2 -10 -4z"/>
<path d="M3897 2650 c3 -11 9 -17 14 -14 5 3 6 -2 3 -10 -4 -11 0 -16 10 -16
9 0 16 8 16 20 0 11 -7 20 -15 20 -8 0 -15 5 -15 10 0 6 -4 10 -9 10 -5 0 -7
-9 -4 -20z"/>
<path d="M2422 2646 c4 -5 -2 -17 -13 -29 -20 -21 -25 -37 -11 -37 4 0 15 13
24 30 12 22 14 31 5 36 -7 4 -9 4 -5 0z"/>
<path d="M4405 2640 c-3 -5 -1 -10 4 -10 6 0 11 5 11 10 0 6 -2 10 -4 10 -3 0
-8 -4 -11 -10z"/>
<path d="M3980 2597 c0 -14 20 -37 32 -37 15 0 8 38 -8 44 -22 8 -24 8 -24 -7z"/>
<path d="M2455 2589 c-4 -6 -5 -12 -2 -15 2 -3 7 2 10 11 7 17 1 20 -8 4z"/>
<path d="M4409 2583 c-13 -16 -12 -17 4 -4 16 13 21 21 13 21 -2 0 -10 -8 -17
-17z"/>
<path d="M4632 2575 c0 -16 2 -22 5 -12 2 9 2 23 0 30 -3 6 -5 -1 -5 -18z"/>
<path d="M4444 2536 c-9 -15 -14 -29 -12 -32 3 -2 13 7 22 22 10 14 15 28 13
31 -3 2 -13 -7 -23 -21z"/>
<path d="M4330 2525 c-9 -10 -6 -16 9 -25 17 -9 20 -8 15 5 -4 9 -3 15 2 13 5
-2 11 1 14 6 8 15 -28 15 -40 1z"/>
<path d="M4182 2496 c-3 -6 0 -12 6 -14 7 -2 9 -9 5 -15 -4 -7 2 -5 12 3 14
11 17 11 11 1 -7 -10 -3 -12 13 -6 15 5 21 2 21 -9 0 -9 4 -16 9 -16 5 0 7
-17 4 -37 l-5 -38 50 55 c48 53 61 78 25 49 -9 -8 -14 -9 -11 -4 4 6 3 17 -2
25 -8 12 -10 12 -14 0 -3 -8 -6 -28 -8 -43 -3 -27 -22 -39 -23 -14 0 6 -9 26
-20 43 -19 31 -59 42 -73 20z"/>
<path d="M4160 2459 c0 -5 -4 -7 -10 -4 -17 10 -11 -2 8 -16 9 -7 14 -9 10 -5
-4 5 -3 15 3 23 9 9 8 13 0 13 -6 0 -11 -5 -11 -11z"/>
<path d="M4481 2424 c0 -11 3 -14 6 -6 3 7 2 16 -1 19 -3 4 -6 -2 -5 -13z"/>
<path d="M3610 2400 c0 -20 5 -30 15 -30 8 0 15 -6 15 -12 0 -7 5 -5 11 4 11
21 -2 52 -26 62 -11 4 -15 -2 -15 -24z"/>
<path d="M4151 2407 c-8 -10 -7 -14 2 -14 8 0 14 6 14 14 0 7 -1 13 -2 13 -2
0 -8 -6 -14 -13z"/>
<path d="M3193 2355 c0 -27 2 -38 4 -22 2 15 2 37 0 50 -2 12 -4 0 -4 -28z"/>
<path d="M4493 2388 c3 -9 3 -19 -1 -21 -4 -2 -2 -2 5 -1 7 2 15 -1 18 -7 4
-5 11 -6 17 -3 7 5 9 1 5 -9 -3 -9 -1 -19 5 -23 7 -4 8 -3 4 4 -4 7 -2 12 5
12 8 0 8 4 -1 15 -7 8 -16 13 -20 10 -5 -3 -16 5 -26 17 -10 14 -14 16 -11 6z"/>
<path d="M4195 2374 c-14 -11 -22 -11 -34 -2 -9 7 -13 8 -8 3 4 -4 -2 -18 -13
-30 -16 -17 -17 -22 -6 -22 8 0 13 4 10 8 -6 10 15 23 41 26 18 3 18 1 -4 -17
-13 -11 -20 -20 -16 -20 16 0 73 58 61 63 -6 3 -20 -1 -31 -9z"/>
<path d="M2651 2354 c0 -11 3 -14 6 -6 3 7 2 16 -1 19 -3 4 -6 -2 -5 -13z"/>
<path d="M4010 2360 c-9 -6 -10 -10 -3 -10 6 0 15 5 18 10 8 12 4 12 -15 0z"/>
<path d="M4040 2350 c-6 -11 -14 -18 -18 -16 -5 3 -14 0 -22 -6 -13 -8 -12 -9
2 -5 9 3 19 3 22 -1 12 -11 46 -9 37 2 -5 6 -7 19 -6 29 4 23 -2 22 -15 -3z"/>
<path d="M4289 2343 c-13 -16 -12 -17 4 -4 16 13 21 21 13 21 -2 0 -10 -8 -17
-17z"/>
<path d="M3865 2340 c3 -5 11 -10 16 -10 6 0 7 5 4 10 -3 6 -11 10 -16 10 -6
0 -7 -4 -4 -10z"/>
<path d="M3783 2327 c4 -11 1 -17 -8 -17 -8 0 -15 -5 -15 -12 0 -6 3 -8 7 -5
3 4 12 2 20 -5 11 -9 12 -7 6 8 -6 17 -5 18 12 4 17 -14 18 -14 7 7 -15 28
-38 43 -29 20z"/>
<path d="M4209 2323 c-13 -16 -12 -17 4 -4 9 7 17 15 17 17 0 8 -8 3 -21 -13z"/>
<path d="M4227 2310 c-30 -34 -33 -42 -13 -34 16 6 50 53 43 60 -2 2 -16 -9
-30 -26z"/>
<path d="M4493 2309 c-2 -23 3 -25 10 -4 4 8 3 16 -1 19 -4 3 -9 -4 -9 -15z"/>
<path d="M3040 2301 c0 -5 4 -12 9 -15 4 -3 7 -17 6 -31 -2 -14 1 -25 6 -25 5
0 9 9 9 21 0 11 5 17 10 14 6 -3 10 -15 10 -25 0 -22 35 -46 45 -30 3 5 0 10
-8 10 -15 0 -30 24 -20 33 3 3 15 1 28 -5 19 -9 22 -16 19 -49 -2 -21 0 -40 5
-43 4 -3 8 8 9 25 1 38 7 45 26 30 11 -9 15 -9 18 0 3 9 9 9 24 1 10 -6 16
-12 11 -12 -4 0 0 -11 9 -25 16 -24 16 -26 -5 -44 -20 -18 -21 -20 -4 -24 17
-4 17 -5 0 -6 -10 0 -27 7 -38 18 -11 10 -34 21 -50 25 -16 3 -29 11 -29 19 0
7 -12 17 -27 23 -23 8 -35 6 -67 -12 -36 -20 -37 -23 -19 -33 11 -5 23 -8 26
-5 3 3 15 -4 27 -16 13 -13 29 -20 41 -17 10 3 17 2 14 -3 -8 -13 27 -21 41
-9 11 9 29 9 72 0 64 -12 149 -28 202 -37 43 -7 78 -8 105 -2 11 3 23 1 26 -5
7 -11 128 7 138 20 3 5 12 8 19 9 35 3 40 5 45 19 5 11 1 12 -20 4 -16 -6 -38
-6 -59 0 -31 9 -38 7 -36 -10 1 -4 -7 -9 -16 -12 -13 -3 -18 1 -18 16 1 30
-21 32 -28 2 -4 -14 -10 -25 -15 -25 -6 0 -6 12 -2 28 4 15 4 40 0 56 -7 25
-5 27 12 23 10 -3 17 -1 13 4 -3 5 1 9 9 9 8 0 18 -10 22 -22 8 -22 8 -22 12
5 4 23 33 41 33 19 0 -4 9 -8 20 -9 11 -1 20 4 20 12 0 9 6 12 17 8 11 -4 14
-3 9 5 -9 14 -46 16 -46 2 0 -5 -6 -7 -12 -5 -7 3 -56 -1 -108 -9 -52 -8 -84
-14 -71 -15 16 -1 21 -5 18 -16 -4 -8 -2 -17 3 -20 6 -4 10 -1 10 4 0 6 4 11
8 11 12 0 14 -58 2 -65 -6 -4 -8 -11 -4 -16 4 -6 -14 -9 -47 -7 -48 3 -53 5
-60 31 -9 34 7 77 30 78 31 2 -65 18 -113 18 -40 1 -47 -2 -42 -15 3 -9 6 -22
6 -30 0 -9 11 -14 29 -14 21 0 30 6 35 23 6 18 9 14 21 -28 8 -27 14 -51 15
-52 0 -2 -12 -3 -27 -2 -16 0 -23 3 -16 5 17 7 4 34 -16 34 -14 0 -14 -2 -1
-10 13 -8 12 -10 -2 -10 -25 0 -33 4 -30 13 1 5 -5 7 -15 5 -10 -2 -17 -10
-16 -16 2 -7 -1 -12 -6 -12 -19 0 -21 20 -6 50 22 43 12 65 -38 79 -35 11 -96
37 -189 83 -11 5 -18 5 -18 -1z m320 -126 c0 -8 -6 -15 -13 -15 -8 0 -14 7
-14 15 0 8 6 15 14 15 7 0 13 -7 13 -15z m-250 -10 c14 -16 10 -18 -14 -9 -9
3 -16 10 -16 15 0 14 16 11 30 -6z m0 -25 c8 -5 11 -10 5 -10 -5 0 -17 5 -25
10 -8 5 -10 10 -5 10 6 0 17 -5 25 -10z m563 -77 c-7 -2 -19 -2 -25 0 -7 3 -2
5 12 5 14 0 19 -2 13 -5z"/>
<path d="M4520 2288 c-6 -13 -20 -30 -32 -37 -18 -11 -19 -10 -14 11 4 15 0
12 -11 -9 -15 -29 -24 -35 -50 -32 -5 1 -7 5 -5 11 1 5 -2 7 -8 3 -8 -5 -8
-11 0 -20 8 -9 7 -24 -4 -54 -11 -34 -11 -41 0 -41 7 0 16 5 19 10 4 6 11 7
17 4 7 -4 8 -2 4 5 -6 9 -11 9 -22 0 -24 -20 -15 6 19 52 32 44 65 65 54 34
-12 -30 2 -14 27 32 15 25 24 48 22 51 -3 2 -10 -6 -16 -20z"/>
<path d="M3670 2285 c-8 -9 -8 -15 -2 -15 12 0 26 19 19 26 -2 2 -10 -2 -17
-11z"/>
<path d="M3945 2290 c-4 -6 -14 -8 -23 -6 -10 3 -30 -4 -47 -15 -26 -18 -27
-20 -6 -14 15 5 21 3 17 -3 -3 -6 -1 -14 5 -18 7 -4 9 -3 6 3 -4 6 1 19 9 29
9 10 12 13 8 5 -5 -10 -1 -11 17 -6 23 7 24 7 4 -9 -12 -9 -15 -15 -7 -16 7 0
10 -5 6 -11 -4 -7 -1 -10 7 -7 8 3 13 11 11 17 -1 7 2 20 8 31 11 20 -3 39
-15 20z"/>
<path d="M3493 2274 c-6 -16 15 -37 29 -28 4 3 8 0 8 -7 0 -7 2 -10 5 -7 8 7
-16 58 -27 58 -5 0 -11 -7 -15 -16z"/>
<path d="M3620 2281 c0 -6 5 -13 10 -16 6 -3 10 1 10 9 0 9 -4 16 -10 16 -5 0
-10 -4 -10 -9z"/>
<path d="M4061 2281 c-9 -6 -10 -11 -2 -15 6 -4 9 -12 6 -17 -10 -15 2 -10 16
8 12 14 12 16 0 8 -11 -6 -13 -4 -8 8 7 19 7 20 -12 8z"/>
<path d="M4554 2275 c-4 -8 -11 -12 -17 -8 -6 3 -7 1 -3 -5 10 -16 14 -15 26
8 6 11 8 20 5 20 -3 0 -8 -7 -11 -15z"/>
<path d="M4373 2258 c3 -9 1 -19 -6 -22 -9 -3 -9 -5 0 -5 18 -1 23 13 11 29
-8 12 -9 12 -5 -2z"/>
<path d="M2691 2244 c0 -11 3 -14 6 -6 3 7 2 16 -1 19 -3 4 -6 -2 -5 -13z"/>
<path d="M2945 2250 c-3 -5 -1 -10 4 -10 6 0 11 5 11 10 0 6 -2 10 -4 10 -3 0
-8 -4 -11 -10z"/>
<path d="M3824 2252 c3 -5 0 -13 -6 -15 -9 -4 -9 -6 1 -6 11 -1 10 -4 -4 -14
-10 -8 -14 -17 -8 -20 5 -3 17 3 26 14 9 10 12 19 6 19 -5 0 -8 4 -4 9 3 5 0
13 -6 17 -7 4 -9 3 -5 -4z"/>
<path d="M3764 2235 c-10 -8 -14 -15 -8 -15 5 0 19 7 30 15 10 8 14 15 8 15
-5 0 -19 -7 -30 -15z"/>
<path d="M2995 2230 c-3 -5 -1 -10 4 -10 6 0 11 5 11 10 0 6 -2 10 -4 10 -3 0
-8 -4 -11 -10z"/>
<path d="M3974 2225 c-15 -11 -16 -15 -4 -15 8 -1 4 -6 -9 -11 -13 -5 -22 -12
-19 -15 5 -4 88 34 88 41 0 2 -10 1 -22 -3 -14 -3 -19 -2 -14 6 10 16 4 15
-20 -3z"/>
<path d="M4508 2197 c-13 -27 -13 -34 -2 -34 7 0 11 4 8 8 -8 14 16 50 28 43
7 -4 8 -3 4 4 -12 19 -21 14 -38 -21z"/>
<path d="M4080 2205 c-7 -8 -8 -15 -2 -15 5 0 15 7 22 15 7 8 8 15 2 15 -5 0
-15 -7 -22 -15z"/>
<path d="M4273 2175 c0 -22 2 -30 4 -17 2 12 2 30 0 40 -3 9 -5 -1 -4 -23z"/>
<path d="M4370 2190 c-7 -12 -16 -18 -23 -13 -7 4 -7 0 2 -10 14 -18 22 -22
19 -9 -1 4 3 17 10 30 7 12 10 22 8 22 -3 0 -10 -9 -16 -20z"/>
<path d="M3989 2180 c-1 -5 -2 -15 -3 -20 0 -6 -8 -15 -16 -21 -8 -6 -10 -9
-5 -7 62 25 74 31 79 44 5 13 3 13 -16 -1 -28 -19 -50 -19 -24 0 17 13 18 15
3 15 -9 0 -18 -4 -18 -10z"/>
<path d="M3836 2171 c-3 -5 1 -15 10 -22 13 -11 11 -16 -23 -37 -21 -13 -29
-21 -18 -18 11 3 34 8 50 12 46 11 86 34 79 45 -4 8 1 9 16 4 15 -5 20 -4 16
4 -10 16 -30 13 -52 -8 -17 -17 -22 -17 -48 -4 -22 12 -26 17 -15 24 9 6 10 9
2 9 -6 0 -14 -4 -17 -9z"/>
<path d="M3876 2164 c-4 -10 -1 -14 6 -12 15 5 23 28 10 28 -5 0 -13 -7 -16
-16z"/>
<path d="M4223 2164 c0 -7 5 -10 11 -7 6 3 5 0 -1 -8 -7 -7 -14 -33 -14 -58
l-2 -46 -6 40 c-5 30 -8 36 -14 22 -8 -21 -10 -87 -2 -87 15 0 45 38 45 58 0
13 4 20 10 17 6 -3 10 1 10 10 0 9 -4 13 -10 10 -5 -3 -10 -2 -10 4 0 5 5 13
11 16 5 4 9 14 7 22 -4 20 -35 26 -35 7z"/>
<path d="M4436 2172 c-3 -5 1 -9 9 -9 8 0 12 4 9 9 -3 4 -7 8 -9 8 -2 0 -6 -4
-9 -8z"/>
<path d="M3215 2160 c3 -5 8 -10 11 -10 2 0 4 5 4 10 0 6 -5 10 -11 10 -5 0
-7 -4 -4 -10z"/>
<path d="M3471 2154 c0 -11 3 -14 6 -6 3 7 2 16 -1 19 -3 4 -6 -2 -5 -13z"/>
<path d="M3605 2150 c3 -5 8 -10 11 -10 2 0 4 5 4 10 0 6 -5 10 -11 10 -5 0
-7 -4 -4 -10z"/>
<path d="M2831 2134 c0 -11 3 -14 6 -6 3 7 2 16 -1 19 -3 4 -6 -2 -5 -13z"/>
<path d="M4336 2127 c-16 -12 -16 -14 -3 -14 9 0 18 6 21 14 3 7 4 13 3 13 -2
0 -11 -6 -21 -13z"/>
<path d="M3690 2115 c14 -8 30 -14 35 -14 6 0 -1 6 -15 14 -14 8 -29 14 -35
14 -5 0 1 -6 15 -14z"/>
<path d="M4270 2113 c0 -5 5 -15 10 -23 8 -12 10 -11 10 8 0 12 -4 22 -10 22
-5 0 -10 -3 -10 -7z"/>
<path d="M4490 2105 c-7 -9 -11 -17 -9 -20 3 -2 10 5 17 15 14 24 10 26 -8 5z"/>
<path d="M3510 2090 c0 -5 5 -10 10 -10 6 0 10 5 10 10 0 6 -4 10 -10 10 -5 0
-10 -4 -10 -10z"/>
<path d="M4163 2065 c3 -46 17 -46 17 0 0 19 -4 35 -9 35 -5 0 -9 -16 -8 -35z"/>
<path d="M4346 2092 c-3 -5 1 -9 9 -9 8 0 12 4 9 9 -3 4 -7 8 -9 8 -2 0 -6 -4
-9 -8z"/>
<path d="M4325 2060 c-3 -5 -4 -14 -1 -19 4 -5 -5 -8 -19 -6 -20 2 -23 -1 -14
-11 6 -7 8 -19 4 -26 -4 -7 0 -5 8 4 8 10 17 15 20 12 3 -3 11 4 17 16 10 18
9 21 -1 15 -9 -6 -11 -3 -6 8 7 19 2 23 -8 7z"/>
<path d="M2845 2043 c-5 -14 2 -24 37 -51 12 -10 18 -10 24 -1 4 7 3 9 -3 6
-6 -4 -14 0 -17 9 -3 8 -2 12 4 9 5 -3 8 3 7 14 -1 15 -4 17 -14 9 -10 -8 -12
-7 -8 4 4 9 0 15 -9 15 -8 0 -18 -7 -21 -14z"/>
<path d="M4246 2045 c-3 -9 -6 -22 -5 -28 0 -7 5 -1 10 12 5 13 8 26 5 28 -2
2 -6 -3 -10 -12z"/>
<path d="M3165 2039 c-4 -6 -5 -12 -2 -15 2 -3 7 2 10 11 7 17 1 20 -8 4z"/>
<path d="M4100 2025 c0 -8 2 -15 4 -15 2 0 6 7 10 15 3 8 1 15 -4 15 -6 0 -10
-7 -10 -15z"/>
<path d="M2923 2014 c-3 -8 -1 -20 4 -25 7 -7 12 -5 17 6 4 11 2 14 -6 9 -8
-5 -9 -2 -5 9 3 10 4 17 1 17 -2 0 -7 -7 -11 -16z"/>
<path d="M2990 1999 c14 -24 4 -40 -11 -19 -9 12 -10 12 -5 -3 3 -10 6 -21 6
-23 0 -3 5 -2 10 1 6 3 10 0 10 -7 0 -8 5 -6 11 5 8 14 7 24 -5 43 -20 29 -31
32 -16 3z"/>
<path d="M4140 2000 c0 -11 4 -20 9 -20 17 0 19 15 5 28 -12 11 -14 9 -14 -8z"/>
<path d="M3031 1996 c-10 -12 -8 -17 8 -25 13 -8 22 -8 26 -1 4 6 1 9 -7 8 -7
-2 -12 5 -12 15 2 21 0 21 -15 3z"/>
<path d="M4221 1994 c0 -11 3 -14 6 -6 3 7 2 16 -1 19 -3 4 -6 -2 -5 -13z"/>
<path d="M4250 1979 c0 -11 5 -17 10 -14 6 3 10 13 10 21 0 8 -4 14 -10 14 -5
0 -10 -9 -10 -21z"/>
<path d="M3225 1959 c-3 -4 2 -6 10 -5 21 3 28 13 10 13 -9 0 -18 -4 -20 -8z"/>
<path d="M3651 1924 c0 -11 3 -14 6 -6 3 7 2 16 -1 19 -3 4 -6 -2 -5 -13z"/>
<path d="M4130 1934 c0 -11 29 -34 34 -26 2 4 -4 13 -15 20 -10 7 -19 10 -19
6z"/>
<path d="M4200 1930 c0 -5 5 -10 10 -10 6 0 10 5 10 10 0 6 -4 10 -10 10 -5 0
-10 -4 -10 -10z"/>
<path d="M3416 1917 c3 -10 9 -15 12 -12 3 3 0 11 -7 18 -10 9 -11 8 -5 -6z"/>
<path d="M2946 1907 c3 -10 9 -15 12 -12 3 3 0 11 -7 18 -10 9 -11 8 -5 -6z"/>
<path d="M4106 1912 c-3 -5 1 -9 9 -9 8 0 12 4 9 9 -3 4 -7 8 -9 8 -2 0 -6 -4
-9 -8z"/>
<path d="M4099 1883 c0 -5 -3 -19 -5 -33 -4 -24 -4 -24 10 -5 18 23 20 45 6
45 -5 0 -10 -3 -11 -7z"/>
<path d="M3776 1805 c-3 -8 0 -17 6 -21 7 -4 6 -10 -3 -16 -12 -8 -12 -9 0 -6
8 2 15 14 16 26 2 27 -10 38 -19 17z"/>
<path d="M2596 4375 c-3 -8 -1 -15 4 -15 6 0 10 7 10 15 0 8 -2 15 -4 15 -2 0
-6 -7 -10 -15z"/>
<path d="M2750 4363 c0 -5 7 -16 14 -26 11 -14 16 -15 22 -6 4 7 2 15 -4 17
-7 2 -10 8 -6 13 3 5 -2 9 -10 9 -9 0 -16 -3 -16 -7z"/>
<path d="M2704 4352 c9 -15 48 -23 43 -9 -2 7 -14 14 -26 15 -13 2 -21 -1 -17
-6z"/>
<path d="M3130 4480 c0 -5 5 -10 11 -10 5 0 7 5 4 10 -3 6 -8 10 -11 10 -2 0
-4 -4 -4 -10z"/>
<path d="M2191 2774 c0 -11 3 -14 6 -6 3 7 2 16 -1 19 -3 4 -6 -2 -5 -13z"/>
<path d="M3929 1933 c-12 -16 -12 -17 2 -6 9 7 20 9 24 5 5 -4 5 -1 1 6 -9 16
-11 15 -27 -5z"/>
<path d="M3886 1882 c-3 -5 3 -17 13 -26 16 -15 19 -15 35 3 10 11 13 21 7 25
-5 4 -13 2 -16 -4 -5 -8 -11 -8 -20 0 -8 6 -16 7 -19 2z m54 -6 c0 -2 -6 -9
-14 -15 -11 -9 -16 -9 -22 0 -4 7 -3 9 4 5 6 -3 13 -2 17 4 6 10 15 14 15 6z"/>
<path d="M3935 1839 c-4 -6 -5 -12 -2 -15 2 -3 7 2 10 11 7 17 1 20 -8 4z"/>
</g>
</svg>
